<svg width="220" height="155" viewBox="0 0 220 155" fill="none" xmlns="http://www.w3.org/2000/svg">
<g opacity="0.5">
<path opacity="0.1" d="M73.5929 154.577C84.2129 154.577 92.8221 153.2 92.8221 151.501C92.8221 149.802 84.2129 148.425 73.5929 148.425C62.973 148.425 54.3638 149.802 54.3638 151.501C54.3638 153.2 62.973 154.577 73.5929 154.577Z" fill="#587EEC"/>
<path opacity="0.1" d="M178.12 154.663C191.372 154.663 202.115 153.286 202.115 151.587C202.115 149.888 191.372 148.511 178.12 148.511C164.868 148.511 154.125 149.888 154.125 151.587C154.125 153.286 164.868 154.663 178.12 154.663Z" fill="#587EEC"/>
<path opacity="0.1" d="M3.82405 67.2886H23.8525V94.4775H5.29031C5.24098 94.7566 5.19362 95.0377 5.14231 95.3187H23.8525V117.246C23.8189 117.236 23.7893 117.224 23.7577 117.213C23.2289 117.004 22.7039 116.784 22.179 116.548L21.8435 116.397C21.3173 116.149 20.791 115.887 20.2648 115.611C20.0812 115.514 19.8977 115.414 19.7161 115.312C16.7946 113.682 14.1406 111.617 11.8461 109.187C11.779 109.123 11.7158 109.054 11.6487 108.991C11.329 108.645 11.0153 108.295 10.7113 107.937L10.3759 107.544C10.0167 107.106 9.66937 106.656 9.33191 106.2C9.28258 106.133 9.23522 106.066 9.18391 106.003C7.81147 104.108 6.67192 102.056 5.78959 99.8905C5.76197 99.8257 5.73828 99.7549 5.71263 99.694C5.44161 98.9995 5.20151 98.2984 4.99232 97.5909C4.90155 97.2941 4.81472 97.0012 4.73972 96.6926C4.7121 96.6022 4.68841 96.5138 4.66671 96.4253C3.54579 92.0678 3.41357 87.5412 3.41357 83.0461C3.41357 82.5213 3.41357 81.9945 3.41357 81.4737C3.41357 79.6556 3.43528 77.8257 3.46686 75.9978C3.46686 75.5241 3.48659 75.0523 3.49646 74.5767C3.52409 73.3699 3.56356 72.163 3.61486 70.9562C3.62671 70.6201 3.64249 70.286 3.66025 69.9518C3.66025 69.7592 3.67012 69.5666 3.68986 69.374C3.73722 68.6743 3.77669 67.9804 3.82405 67.2886Z" fill="#587EEC"/>
<path opacity="0.1" d="M23.8523 37.0157H12.8662C14.6521 34.2317 16.6033 31.5565 18.7096 29.0043C20.3416 27.0074 22.0644 25.0615 23.8523 23.1864V37.0157Z" fill="#587EEC"/>
<path opacity="0.1" d="M23.8525 37.8571V66.4474H3.88721C3.88721 66.3648 3.90102 66.2803 3.90694 66.1978C3.9247 65.9717 3.94246 65.7457 3.9622 65.5216C3.9839 65.2582 4.00759 64.9929 4.03324 64.7354C4.0589 64.4779 4.08652 64.1635 4.11613 63.8785C4.14573 63.5935 4.17336 63.3045 4.2069 63.0195C4.24045 62.7345 4.27005 62.4495 4.30558 62.1665C4.3411 61.8835 4.37267 61.5965 4.41017 61.3135C4.43977 61.0776 4.47134 60.8437 4.50292 60.6078C4.54831 60.2757 4.59567 59.9415 4.64698 59.6113C4.64698 59.5622 4.66079 59.5111 4.66869 59.4639C5.02888 57.0467 5.51966 54.6505 6.1389 52.2859C6.78709 49.8054 7.61481 47.3749 8.61556 45.0135C9.67918 42.5432 10.9245 40.1545 12.3414 37.8669L23.8525 37.8571Z" fill="#587EEC"/>
<path opacity="0.1" d="M28.634 67.2868V94.4777H71.4122V67.2868H28.634ZM28.634 95.317V118.667C28.8787 118.718 29.1215 118.767 29.3622 118.809C29.6898 118.872 30.0154 118.929 30.349 118.978C30.4121 118.988 30.4772 118.997 30.5463 119.003C30.6765 119.025 30.8107 119.043 30.941 119.06C31.2705 119.106 31.5981 119.143 31.9277 119.172C32.0836 119.188 32.2415 119.202 32.3994 119.214L32.7802 119.243C32.9874 119.259 33.1927 119.271 33.3959 119.277C33.5222 119.277 33.6485 119.288 33.7788 119.292C33.8775 119.292 33.9761 119.292 34.0787 119.292C34.1814 119.292 34.3274 119.292 34.4517 119.292C34.6214 119.292 34.7912 119.292 34.9589 119.292H35.1858C35.3556 119.292 35.5253 119.292 35.693 119.277H35.7049C35.8213 119.277 35.9397 119.277 36.0581 119.261C36.091 119.263 36.1239 119.263 36.1568 119.261C36.2554 119.261 36.3541 119.261 36.4488 119.247H36.5179L37.179 119.196C37.3961 119.176 37.6151 119.151 37.8362 119.127L38.2861 119.074C40.1166 118.819 41.9268 118.435 43.7032 117.926C47.6935 116.818 51.597 115.267 55.5853 114.131C60.7419 112.667 66.4392 111.947 71.4221 113.738V95.317H28.634ZM71.4122 37.016V0.817179C66.7288 0.766641 62.058 1.31223 57.5133 2.44069C46.6811 5.15113 36.9619 11.03 28.634 18.5382V37.014H30.7811V37.8533H28.634V66.4475H71.4122V37.8553H39.5965V37.016H71.4122ZM126.359 24.7886C123.679 24.6942 121.015 23.849 118.605 22.5439C113.997 20.0477 110.317 16.1934 106.204 12.9404C97.659 6.16533 87.0616 2.07707 76.1899 1.06287V37.016H137.258L137.41 36.8568L126.359 24.7886ZM131.922 23.8058L137.82 30.2527V22.1155C135.845 22.3592 134.114 22.939 131.93 23.7979L131.922 23.8058ZM137.82 124.465V95.317H125.252C125.218 95.1931 125.184 95.0674 125.145 94.9416C125.182 95.0674 125.214 95.1931 125.25 95.317H76.1978V116.397C76.6636 116.741 77.1234 117.103 77.5792 117.47C78.0706 117.863 78.5561 118.278 79.0435 118.685L79.5349 119.09C79.7697 119.286 80.0066 119.483 80.2453 119.668C80.719 120.05 81.1972 120.428 81.68 120.8C81.9188 120.996 82.1635 121.173 82.4063 121.358C86.2598 124.292 90.3249 126.941 94.5686 129.281C95.5198 129.805 96.4795 130.317 97.4478 130.816C98.0931 131.144 98.7424 131.471 99.3936 131.787C100.372 132.263 101.359 132.721 102.354 133.163C111.524 137.263 121.22 140.076 131.166 141.522C133.375 141.847 135.592 142.103 137.818 142.289V124.464H138.016L137.82 124.465ZM76.1978 37.8553V66.4475H137.828V37.8553H76.1978ZM76.1978 67.2868V94.4777H137.828V67.2868H76.1978ZM142.612 22.0801V31.1568L150.141 22.9292C147.646 22.5282 145.137 22.2419 142.612 22.0702V22.0801ZM142.612 67.2966V94.4777H202.555V67.2868L142.612 67.2966ZM202.336 126.624L202.547 95.317H142.612V142.601C146.473 142.763 150.34 142.717 154.196 142.464H154.263C156.105 142.348 157.938 142.181 159.763 141.961H159.804C169.54 140.832 179.059 138.302 188.064 134.45L202.336 126.624ZM214.114 71.7643C213.889 71.2355 213.654 70.7107 213.415 70.1918C212.969 69.2091 212.497 68.2539 212.012 67.2986H207.335V94.4777H219.16C219.154 86.7808 217.198 78.9187 214.119 71.7544L214.114 71.7643ZM207.335 95.3268V122.254C210.666 119.074 213.48 115.436 215.507 111.277C217.944 106.269 219.059 100.846 219.15 95.3229L207.335 95.3268ZM207.335 59.3737V66.4495H211.574C210.291 64.0137 208.878 61.6484 207.341 59.3638L207.335 59.3737ZM166.682 27.4145C166.37 27.2965 166.058 27.1766 165.745 27.0607C162.435 25.8435 159.054 24.8313 155.619 24.0299L144.098 36.6229L143.877 36.8568L144.025 37.018H185.029C179.318 33.1028 173.162 29.8758 166.688 27.4046L166.682 27.4145ZM186.231 37.8651H143.453L142.612 38.6316V66.4475H149.981H149.993H202.563V52.974C197.807 47.2456 192.319 42.1628 186.237 37.8553L186.231 37.8651Z" fill="#587EEC"/>
<path opacity="0.1" d="M23.8525 52.2781V66.4474H3.88721C3.88721 66.3649 3.90102 66.2804 3.90694 66.1978C3.9247 65.9718 3.94246 65.7458 3.9622 65.5217C3.9839 65.2583 4.00759 64.993 4.03324 64.7355C4.0589 64.478 4.08652 64.1635 4.11613 63.8785C4.14573 63.5935 4.17336 63.3046 4.2069 63.0196C4.24045 62.7346 4.27005 62.4496 4.30558 62.1666C4.3411 61.8835 4.37267 61.5966 4.41017 61.3135C4.43977 61.0777 4.47134 60.8438 4.50292 60.6079C4.54831 60.2757 4.59567 59.9416 4.64698 59.6114C4.64698 59.5623 4.66079 59.5112 4.66869 59.464C5.02888 57.0467 5.51966 54.6506 6.1389 52.2859L23.8525 52.2781Z" fill="#587EEC"/>
<path opacity="0.1" d="M3.82405 67.2886H23.8525V94.4775H5.29031C5.24098 94.7566 5.19362 95.0377 5.14231 95.3187H23.8525V117.246C23.8189 117.236 23.7893 117.224 23.7577 117.213C23.2289 117.004 22.7039 116.784 22.179 116.548L21.8435 116.397C21.3173 116.149 20.791 115.887 20.2648 115.611C20.0812 115.514 19.8977 115.414 19.7161 115.312C16.7946 113.682 14.1406 111.617 11.8461 109.187C11.779 109.123 11.7158 109.054 11.6487 108.991C11.329 108.645 11.0153 108.295 10.7113 107.937L10.3759 107.544C10.0167 107.106 9.66937 106.656 9.33191 106.2C9.28258 106.133 9.23522 106.066 9.18391 106.003C7.81147 104.108 6.67192 102.056 5.78959 99.8905C5.76197 99.8257 5.73828 99.7549 5.71263 99.694C5.44161 98.9995 5.20151 98.2984 4.99232 97.5909C4.90155 97.2941 4.81472 97.0012 4.73972 96.6926C4.7121 96.6022 4.68841 96.5138 4.66671 96.4253C3.54579 92.0678 3.41357 87.5412 3.41357 83.0461C3.41357 82.5213 3.41357 81.9945 3.41357 81.4737C3.41357 79.6556 3.43528 77.8257 3.46686 75.9978C3.46686 75.5241 3.48659 75.0523 3.49646 74.5767C3.52409 73.3699 3.56356 72.163 3.61486 70.9562C3.62671 70.6201 3.64249 70.286 3.66025 69.9518C3.66025 69.7592 3.67012 69.5666 3.68986 69.374C3.73722 68.6743 3.77669 67.9804 3.82405 67.2886Z" fill="#587EEC"/>
<path opacity="0.1" d="M43.6933 41.9492V66.4474H28.634V41.9492H30.7811V33.6548H39.5945V41.9492H43.6933Z" fill="#587EEC"/>
<path opacity="0.1" d="M43.6933 67.2867H28.636V94.4757H43.6933V67.2867Z" fill="#587EEC"/>
<path opacity="0.1" d="M28.634 95.3187H43.6933V117.922C41.9169 118.43 40.1068 118.813 38.2762 119.068L37.8263 119.123C37.6053 119.149 37.3862 119.17 37.1692 119.192C36.9521 119.213 36.7271 119.229 36.508 119.243H36.439C36.3443 119.243 36.2416 119.255 36.1489 119.257H36.0482C35.9298 119.257 35.8114 119.268 35.693 119.272C35.5253 119.282 35.3575 119.284 35.1858 119.286C35.1128 119.286 35.0438 119.286 34.9707 119.286C34.801 119.286 34.6333 119.286 34.4636 119.286H34.0906C33.9899 119.286 33.8932 119.286 33.7887 119.286L33.4078 119.272C33.2104 119.272 32.9973 119.251 32.7921 119.237L32.4132 119.21L31.9415 119.166C31.61 119.137 31.2804 119.099 30.9548 119.054L30.5601 118.999L30.3628 118.972C30.0332 118.921 29.7076 118.866 29.376 118.803C29.1333 118.761 28.8926 118.71 28.6478 118.661L28.634 95.3187Z" fill="#587EEC"/>
<path opacity="0.1" d="M137.828 39.0562H125.411V66.4455H137.828V39.0562Z" fill="#587EEC"/>
<path opacity="0.1" d="M137.83 67.2867V94.4776H76.1978V82.7494H109.026V89.668H125.411V67.2867H137.83Z" fill="#587EEC"/>
<path opacity="0.1" d="M138.026 124.471H137.828V142.308C135.605 142.121 133.388 141.866 131.178 141.544C121.227 140.093 111.526 137.273 102.354 133.167C99.7053 131.979 97.1109 130.684 94.5705 129.279C90.3268 126.937 86.2612 124.289 82.4062 121.356C81.4379 120.617 80.4821 119.861 79.5388 119.088C78.8856 118.551 78.2363 118.001 77.5792 117.466C77.1233 117.099 76.6635 116.737 76.1978 116.391V95.3188H125.248C125.214 95.193 125.18 95.0672 125.145 94.9434C125.182 95.0672 125.218 95.193 125.251 95.3188H137.828V124.459C137.895 124.461 137.96 124.467 138.026 124.471Z" fill="#587EEC"/>
<path opacity="0.1" d="M170.212 37.0158H162.121V34.5117H165.749V27.0526C166.063 27.1666 166.376 27.2839 166.688 27.4044V34.5117H170.212V37.0158Z" fill="#587EEC"/>
<path opacity="0.1" d="M189.706 66.4474H149.985C149.985 66.4474 149.985 66.4474 149.998 66.4572L149.981 66.4474H142.612V39.058H144.7V59.3027H154.241V47.3131H162.123V37.8571H170.214V47.321H178.096V59.3106H189.706V66.4474Z" fill="#587EEC"/>
<path opacity="0.1" d="M142.612 67.2867V94.4776H189.706V67.2867H142.612ZM202.49 126.484L202.555 104.962H189.706V95.3306H142.612V142.601C146.473 142.763 150.34 142.717 154.196 142.464H154.263C156.105 142.348 157.938 142.181 159.763 141.96H159.804C169.539 140.832 179.059 138.302 188.064 134.45" fill="#587EEC"/>
<path opacity="0.1" d="M208.172 95.3187H219.158C219.061 100.84 217.948 106.263 215.513 111.271C213.486 115.432 210.67 119.07 207.343 122.248V104.952H208.172V95.3187Z" fill="#587EEC"/>
<path opacity="0.1" d="M219.163 94.4775H208.171V71.7543H214.119C217.198 78.9186 219.154 86.7806 219.163 94.4775Z" fill="#587EEC"/>
<path opacity="0.1" d="M137.83 46.6704H131.178V55.2577H137.83V46.6704Z" fill="#587EEC"/>
<path opacity="0.1" d="M137.83 64.4701H131.178V66.4474H137.83V64.4701Z" fill="#587EEC"/>
<path opacity="0.1" d="M137.83 67.2867H131.178V73.0555H137.83V67.2867Z" fill="#587EEC"/>
<path opacity="0.1" d="M137.83 82.2697H131.178V90.857H137.83V82.2697Z" fill="#587EEC"/>
<path opacity="0.1" d="M137.83 100.069H131.178V108.657H137.83V100.069Z" fill="#587EEC"/>
<path opacity="0.1" d="M137.828 124.459C137.895 124.459 137.96 124.459 138.026 124.471H137.828V126.466H131.178V117.869H137.828V124.459Z" fill="#587EEC"/>
<path opacity="0.1" d="M137.828 135.665V142.298C135.605 142.111 133.388 141.856 131.178 141.534V135.665H137.828Z" fill="#587EEC"/>
<path opacity="0.1" d="M104.708 93.8467H76.1978V94.4776H104.708V93.8467Z" fill="#587EEC"/>
<path opacity="0.1" d="M104.708 95.3168H76.1978V97.7343H104.708V95.3168Z" fill="#587EEC"/>
<path opacity="0.1" d="M104.708 105.659H76.1978V109.547H104.708V105.659Z" fill="#587EEC"/>
<path opacity="0.1" d="M104.706 117.472V121.36H82.4061C81.4378 120.624 80.4814 119.867 79.5368 119.092C78.8836 118.555 78.2363 118.005 77.5771 117.472H104.706Z" fill="#587EEC"/>
<path opacity="0.1" d="M104.706 129.283V133.167H102.352C99.7061 131.978 97.1123 130.682 94.5706 129.277L104.706 129.283Z" fill="#587EEC"/>
<path opacity="0.1" d="M159.81 69.9224H154.198V75.5123H159.81V69.9224Z" fill="#587EEC"/>
<path opacity="0.1" d="M38.29 43.8774H32.6775V49.4674H38.29V43.8774Z" fill="#587EEC"/>
<path opacity="0.1" d="M38.29 56.8617H32.6775V62.4516H38.29V56.8617Z" fill="#587EEC"/>
<path opacity="0.1" d="M38.29 69.8459H32.6775V75.4359H38.29V69.8459Z" fill="#587EEC"/>
<path opacity="0.1" d="M38.29 82.828H32.6775V88.4179H38.29V82.828Z" fill="#587EEC"/>
<path opacity="0.1" d="M38.29 95.8121H32.6775V101.402H38.29V95.8121Z" fill="#587EEC"/>
<path opacity="0.1" d="M38.29 108.796H32.6775V114.386H38.29V108.796Z" fill="#587EEC"/>
<path opacity="0.1" d="M181.236 69.9224H175.624V75.5123H181.236V69.9224Z" fill="#587EEC"/>
<path opacity="0.1" d="M159.81 83.7104H154.198V89.3003H159.81V83.7104Z" fill="#587EEC"/>
<path opacity="0.1" d="M181.236 83.7104H175.624V89.3003H181.236V83.7104Z" fill="#587EEC"/>
<path opacity="0.1" d="M159.81 97.4966H154.198V103.086H159.81V97.4966Z" fill="#587EEC"/>
<path opacity="0.1" d="M181.236 97.4966H175.624V103.086H181.236V97.4966Z" fill="#587EEC"/>
<path opacity="0.1" d="M159.81 111.285H154.198V116.875H159.81V111.285Z" fill="#587EEC"/>
<path opacity="0.1" d="M181.236 111.285H175.624V116.875H181.236V111.285Z" fill="#587EEC"/>
<path opacity="0.1" d="M159.81 125.073H154.198V130.663H159.81V125.073Z" fill="#587EEC"/>
<path opacity="0.1" d="M181.236 125.073H175.624V130.663H181.236V125.073Z" fill="#587EEC"/>
<path opacity="0.1" d="M154.198 142.463V138.859H159.808V141.95L154.198 142.463Z" fill="#587EEC"/>
<path opacity="0.1" d="M4.64502 59.4601V62.658H23.8525V59.4601H4.64502ZM6.55925 62.4575H4.99234V59.6566H6.57109L6.55925 62.4575ZM8.47151 62.4575H6.89276V59.6566H8.47151V62.4575ZM10.3798 62.4575H8.80108V59.6566H10.3798V62.4575ZM12.2921 62.4575H10.7153V59.6566H12.2941L12.2921 62.4575ZM14.2024 62.4575H12.6236V59.6566H14.2024V62.4575ZM16.1146 62.4575H14.5359V59.6566H16.1146V62.4575ZM18.0269 62.4575H16.4481V59.6566H18.0269V62.4575ZM19.9372 62.4575H18.3584V59.6566H19.9372V62.4575ZM21.8475 62.4575H20.2687V59.6566H21.8475V62.4575ZM23.7578 62.4575H22.179V59.6566H23.7578V62.4575Z" fill="#587EEC"/>
<path opacity="0.1" d="M4.64502 68.7648V71.9626H23.8525V68.7648H4.64502ZM6.55925 71.7602H4.99234V68.9672H6.57109L6.55925 71.7602ZM8.47151 71.7602H6.89276V68.9672H8.47151V71.7602ZM10.3798 71.7602H8.80108V68.9672H10.3798V71.7602ZM12.2921 71.7602H10.7153V68.9672H12.2941L12.2921 71.7602ZM14.2024 71.7602H12.6236V68.9672H14.2024V71.7602ZM16.1146 71.7602H14.5359V68.9672H16.1146V71.7602ZM18.0269 71.7602H16.4481V68.9672H18.0269V71.7602ZM19.9372 71.7602H18.3584V68.9672H19.9372V71.7602ZM21.8475 71.7602H20.2687V68.9672H21.8475V71.7602ZM23.7578 71.7602H22.179V68.9672H23.7578V71.7602Z" fill="#587EEC"/>
<path opacity="0.1" d="M4.64502 78.0734V81.2771H23.8525V78.0734H4.64502ZM6.55925 81.0688H4.99234V78.2738H6.57109L6.55925 81.0688ZM8.47151 81.0688H6.89276V78.2738H8.47151V81.0688ZM10.3798 81.0688H8.80108V78.2738H10.3798V81.0688ZM12.2921 81.0688H10.7153V78.2738H12.2941L12.2921 81.0688ZM14.2024 81.0688H12.6236V78.2738H14.2024V81.0688ZM16.1146 81.0688H14.5359V78.2738H16.1146V81.0688ZM18.0269 81.0688H16.4481V78.2738H18.0269V81.0688ZM19.9372 81.0688H18.3584V78.2738H19.9372V81.0688ZM21.8475 81.0688H20.2687V78.2738H21.8475V81.0688ZM23.7578 81.0688H22.179V78.2738H23.7578V81.0688Z" fill="#587EEC"/>
<path opacity="0.1" d="M4.64502 87.382V90.5759H23.8525V87.382H4.64502ZM6.55925 90.3774H4.99234V87.5805H6.57109L6.55925 90.3774ZM8.47151 90.3774H6.89276V87.5805H8.47151V90.3774ZM10.3798 90.3774H8.80108V87.5805H10.3798V90.3774ZM12.2921 90.3774H10.7153V87.5805H12.2941L12.2921 90.3774ZM14.2024 90.3774H12.6236V87.5805H14.2024V90.3774ZM16.1146 90.3774H14.5359V87.5805H16.1146V90.3774ZM18.0269 90.3774H16.4481V87.5805H18.0269V90.3774ZM19.9372 90.3774H18.3584V87.5805H19.9372V90.3774ZM21.8475 90.3774H20.2687V87.5805H21.8475V90.3774ZM23.7578 90.3774H22.179V87.5805H23.7578V90.3774Z" fill="#587EEC"/>
<path opacity="0.1" d="M4.72778 96.6887C4.80475 96.9894 4.89158 97.2902 4.98236 97.587V96.8892H6.56111V99.6842H5.71647C5.74213 99.749 5.76778 99.8198 5.79344 99.8807H23.8524V96.6887H4.72778ZM8.47732 99.6842H6.89857V96.8892H8.47732V99.6842ZM10.3856 99.6842H8.80688V96.8892H10.3856V99.6842ZM12.2979 99.6842H10.7152V96.8892H12.2939L12.2979 99.6842ZM14.2082 99.6842H12.6294V96.8892H14.2082V99.6842ZM16.1204 99.6842H14.5417V96.8892H16.1204V99.6842ZM18.0327 99.6842H16.454V96.8892H18.0327V99.6842ZM19.943 99.6842H18.3642V96.8892H19.943V99.6842ZM21.8533 99.6842H20.2745V96.8892H21.8533V99.6842ZM23.7636 99.6842H22.1848V96.8892H23.7636V99.6842Z" fill="#587EEC"/>
<path opacity="0.1" d="M9.18774 105.997C9.23708 106.06 9.28444 106.131 9.33575 106.194H10.3797V107.536C10.4922 107.67 10.6027 107.804 10.7172 107.93V106.186H12.2959V108.991H11.6565C11.7197 109.056 11.7808 109.125 11.8539 109.187H23.8583V105.997H9.18774ZM14.2023 108.991H12.6235V106.198H14.2023V108.991ZM16.1145 108.991H14.5358V106.198H16.1145V108.991ZM18.0268 108.991H16.448V106.198H18.0268V108.991ZM19.9371 108.991H18.3583V106.198H19.9371V108.991ZM21.8474 108.991H20.2686V106.198H21.8474V108.991ZM23.7576 108.991H22.1789V106.198H23.7576V108.991Z" fill="#587EEC"/>
<path opacity="0.1" d="M19.7239 115.304C19.9035 115.406 20.087 115.501 20.2725 115.603V115.505H21.8512V116.389L22.1867 116.544V115.505H23.7655V117.205C23.7958 117.22 23.8275 117.232 23.8602 117.24V115.304H19.7239Z" fill="#587EEC"/>
<path opacity="0.1" d="M149.985 66.4475H149.996H149.985ZM137.828 124.458H138.025H137.828ZM125.145 94.9415C125.182 95.0673 125.214 95.1931 125.249 95.3169C125.218 95.1931 125.184 95.0673 125.145 94.9415ZM149.985 66.4416H149.996H149.985ZM30.7888 37.01V37.8493H39.6042V37.01H30.7888ZM137.828 124.458H138.025H137.828ZM125.145 94.9415C125.182 95.0673 125.214 95.1931 125.249 95.3169C125.218 95.1931 125.184 95.0673 125.145 94.9415ZM149.985 66.4416H149.996H149.985ZM137.828 124.452H138.025H137.828ZM125.145 94.9415C125.182 95.0673 125.214 95.1931 125.249 95.3169C125.218 95.1931 125.184 95.0673 125.145 94.9415Z" fill="#587EEC"/>
<path d="M92.1865 75.4395C92.1865 75.4395 91.409 75.3314 91.409 74.2032C91.409 73.075 90.8525 70.968 90.8525 70.968C90.8525 70.9581 90.371 67.2984 89.7059 66.7166C89.0409 66.1348 88.1864 62.7187 88.1864 62.7187C88.1864 62.7187 88.0403 60.8652 87.7423 60.4662C87.4444 60.0672 87.0418 59.0904 86.4478 57.6968C85.8538 56.3033 83.3771 55.3382 83.3771 55.3382C83.3771 55.3382 78.8994 52.7516 77.6304 51.9084C77.5151 51.8391 77.4073 51.7581 77.3088 51.6667C77.0878 51.3777 76.1247 51.3718 76.1247 51.3718C76.0241 50.7389 75.9274 50.0117 75.8958 49.3532C75.8958 49.2825 75.8958 49.2117 75.8859 49.141C77.3009 48.3079 78.3666 46.9945 78.8875 45.4419C78.9112 45.3672 78.9309 45.2886 78.9526 45.2139C79.0374 45.1861 79.1154 45.1409 79.1817 45.0814C79.248 45.0218 79.301 44.9491 79.3375 44.868C79.4519 44.6144 79.4539 44.3176 79.596 44.0817C79.7618 43.8026 80.0775 43.6533 80.3262 43.443C80.9537 42.9123 81.1155 42.018 81.0859 41.2042C81.0662 40.5458 80.9596 39.8814 81.0011 39.2269L81.0129 39.0618C81.0248 38.9636 81.0386 38.8653 81.0563 38.7709C81.153 38.2835 81.3642 37.8236 81.4826 37.34C81.601 36.8565 81.6128 36.3121 81.3366 35.8954C80.932 35.2841 80.0893 35.1623 79.3493 35.0994C78.5106 35.0286 77.7607 35.121 77.2239 34.4272C76.9727 34.0645 76.6901 33.7245 76.3793 33.411C76.2688 33.3088 75.1952 32.6562 75.1952 32.613C74.1474 32.1297 72.9598 32.0389 71.8502 32.3575C71.2937 32.5186 70.7688 32.782 70.2044 32.9137C68.9868 33.2007 67.5856 32.8901 66.5516 33.584C65.9753 33.9771 65.63 34.6021 65.3063 35.2114C65.0432 35.7133 64.7761 36.2145 64.5051 36.715C64.069 37.5386 63.625 38.3759 63.4414 39.2879C63.4028 39.4863 63.3791 39.6874 63.3704 39.8893V39.8991C63.3704 39.9719 63.3704 40.0446 63.3704 40.1173V40.2097C63.3704 40.2785 63.3704 40.3453 63.3822 40.4062C63.3941 40.4672 63.3921 40.4868 63.398 40.5281C63.4039 40.5694 63.4138 40.6618 63.4256 40.7247C63.4375 40.7875 63.4612 40.8976 63.4848 40.9841C63.4947 41.0214 63.5085 41.0568 63.5204 41.0922C63.5401 41.159 63.5638 41.2239 63.5894 41.2888C63.6033 41.3222 63.6171 41.3575 63.6329 41.391C63.6625 41.4598 63.698 41.5266 63.7335 41.5875C63.7493 41.615 63.7611 41.6406 63.7769 41.6661C63.832 41.7575 63.8926 41.8455 63.9585 41.9295C64.3808 42.4543 65.0024 42.7884 65.4622 43.2798C65.4622 43.2995 65.4622 43.3191 65.4622 43.3368C65.4622 43.3919 65.4622 43.4449 65.4622 43.5C65.4866 44.5958 65.7795 45.6692 66.3153 46.6266C66.8512 47.5841 67.6138 48.3966 68.5368 48.9936C68.5368 49.0682 68.5467 49.1449 68.5507 49.2196C68.5891 49.803 68.5819 50.3886 68.5289 50.9709C68.4486 50.8766 68.348 50.8015 68.2346 50.7512C68.1212 50.7008 67.9979 50.6765 67.8738 50.68C67.789 50.6758 67.704 50.6831 67.6212 50.7016L67.6034 50.6878V50.7055C67.1693 50.8117 66.6345 51.2618 66.1233 52.5413C66.1233 52.5413 64.5683 54.2867 63.3842 54.214C62.2001 54.1412 59.2025 56.0301 59.2025 56.0301C59.2025 56.0301 56.2779 57.9209 55.6503 59.8471C55.2995 60.9394 54.879 62.0082 54.3912 63.047L50.7759 70.4668L50.1089 76.3535C50.1089 76.3535 50.4779 78.9715 50.4049 79.3705C50.3319 79.7695 51.9225 83.3684 51.9225 83.3684C51.9225 83.3684 57.1777 92.565 59.3248 93.0367L59.4788 92.9286C59.5706 92.9764 59.6681 93.0127 59.7689 93.0367L60.2109 92.7262C60.2375 93.0723 60.2262 93.4203 60.1774 93.764C59.8814 94.672 60.2879 100.598 60.8049 101.76C61.322 102.921 61.1384 118.152 61.1384 118.152L61.0654 119.496C61.0654 119.496 61.0654 119.54 61.0832 119.614L61.0654 119.933L61.1187 119.96C61.174 120.387 61.156 120.819 61.0654 121.24C60.8799 121.829 60.8049 123.496 60.8049 123.496C60.8049 123.496 59.3268 132.907 60.0274 134.798C60.728 136.689 61.3239 138.76 61.3239 138.76C61.3239 138.76 62.064 141.119 61.3595 141.522C60.6549 141.925 58.6519 142.601 59.0643 143.584C59.4393 144.492 60.8621 146.925 61.0733 147.281L61.0555 147.468L60.7654 150.599C60.8124 151.012 60.925 151.415 61.099 151.794C61.4167 152.476 62.0344 153.183 63.2086 153.107C63.4059 153.093 63.6348 153.069 63.8559 153.04C66.0049 152.753 68.6513 151.798 68.6513 151.798C68.5139 151.711 68.388 151.607 68.2764 151.489C68.1707 151.387 68.087 151.265 68.0304 151.13C67.9737 150.995 67.9453 150.849 67.9468 150.703C67.9784 150.133 66.9068 147.417 66.6404 146.748C66.5989 146.652 66.5772 146.597 66.5772 146.597C66.5772 146.597 69.0203 144.054 68.6138 141.799C68.6138 141.799 65.9102 140.227 66.8002 139.364C67.6902 138.501 69.2808 136.022 69.2808 136.022C69.2808 136.022 69.3538 126.755 69.2808 125.371C69.2047 124.411 69.2504 123.445 69.417 122.496C69.4466 122.352 69.4821 122.213 69.5196 122.075C70.7505 122.258 71.9931 122.352 73.2376 122.356C73.6915 122.356 74.1532 122.356 74.619 122.329C74.619 122.46 74.6249 122.601 74.6367 122.753C74.7394 125.049 74.9308 129.074 75.0867 130.57C75.3077 132.714 76.5293 138.493 76.5293 138.493C76.5293 138.493 74.1986 139.983 76.9358 143.655C76.9358 143.655 76.9358 144.985 76.7542 145.178C76.5604 145.807 76.4042 146.448 76.2865 147.096C76.1721 147.788 76.1247 148.488 76.3102 148.851C76.7542 149.72 79.4184 149.649 79.4184 149.649L79.4835 149.638C79.9865 149.586 80.4947 149.634 80.9788 149.779C81.4629 149.925 81.9132 150.165 82.3035 150.485C83.3159 151.294 87.1582 150.939 89.2382 150.681C90.0532 150.579 90.5979 150.485 90.5979 150.485C90.6243 150.393 90.6337 150.297 90.6255 150.202C90.6038 149.693 90.2032 148.576 87.4878 147.58C87.4878 147.58 84.9341 145.87 84.9697 144.38H84.9164H84.6204C84.8355 144.368 84.9736 144.38 84.9736 144.38C84.9736 144.38 83.9731 140.744 84.3816 140.449C84.7901 140.154 83.5665 136.125 83.5665 136.125C83.5665 136.125 82.866 129.363 82.8285 128.89C82.8301 128.483 82.8919 128.079 83.012 127.691L82.8285 123.984C82.8285 123.984 82.793 122.751 82.8285 122.35C82.8225 122.002 82.7942 121.655 82.7436 121.311C82.7259 121.173 82.7081 121.03 82.6884 120.888C83.6455 120.646 84.2671 120.422 84.2671 120.422L84.1566 107.519C84.9697 105.946 85.1196 102.497 85.1157 100.05C85.1157 98.4772 85.0446 97.3137 85.0446 97.3137L86.1557 95.5074C86.1557 95.5074 86.4122 93.3453 86.0057 92.8716C85.8261 92.6574 85.907 92.4353 86.055 92.2525C86.1319 92.1918 86.213 92.1366 86.2978 92.0874C86.2978 92.0874 86.2859 92.0697 86.2721 92.0441C86.3497 91.9796 86.4322 91.9211 86.5188 91.8692C86.5188 91.8692 86.1241 91.2599 86.4774 91.0024C86.8089 91.2265 87.1049 91.3955 87.3299 91.5331C87.3141 91.6766 87.2983 91.7591 87.2983 91.7591L87.393 91.5626C87.6101 91.6844 87.7423 91.7591 87.7423 91.7591C87.7423 91.7591 89.4829 88.3057 89.4454 87.7967C89.4079 87.2876 90.6295 85.1432 90.6295 85.1432C90.6295 85.1432 90.7775 84.017 91.4445 83.5453C92.1115 83.0735 91.9616 79.6555 91.9616 79.6555C91.9616 79.6555 92.1471 77.8748 92.5911 77.1475C93.0351 76.4203 92.1865 75.4395 92.1865 75.4395ZM58.8828 73.9241L58.9163 74.7476C58.719 74.4312 58.5769 74.2032 58.5769 74.2032L58.8828 73.9241Z" fill="url(#paint0_linear)"/>
<path d="M87.8371 90.2674L87.4108 92.0756C87.4108 92.0756 83.9968 90.3401 83.3811 88.1348C82.7653 85.9295 84.4112 85.0922 84.4112 85.0922L87.5924 86.4346L87.8371 90.2674Z" fill="white"/>
<path opacity="0.1" d="M87.8371 90.2674L87.4108 92.0756C87.4108 92.0756 83.9968 90.3401 83.3811 88.1348C82.7653 85.9295 84.4112 85.0922 84.4112 85.0922L87.5924 86.4346L87.8371 90.2674Z" fill="black"/>
<path d="M68.6769 151.81C68.6769 151.81 65.5194 152.965 63.3486 153.111C62.1961 153.187 61.5903 152.484 61.2785 151.806C61.1082 151.429 60.9983 151.027 60.9529 150.616L61.2351 147.501L61.3851 145.842L65.997 144.649L66.6502 146.638L66.7114 146.79C66.9738 147.454 68.0257 150.157 67.9941 150.721C67.9928 150.865 68.0208 151.008 68.0764 151.142C68.132 151.275 68.2141 151.396 68.3178 151.497C68.4237 151.616 68.5443 151.721 68.6769 151.81Z" fill="white"/>
<path d="M90.2447 150.225C90.2526 150.32 90.2433 150.415 90.2171 150.506C90.2171 150.506 83.464 151.629 82.0826 150.506C81.6931 150.179 81.2391 149.935 80.7497 149.793C80.2604 149.65 79.7464 149.61 79.2408 149.677C79.2408 149.677 76.628 149.748 76.1919 148.891C76.0103 148.531 76.0577 147.833 76.1702 147.145C76.2849 146.501 76.4378 145.864 76.628 145.237L76.7326 145.154L77.3542 144.657L84.6323 144.443H84.6875C84.652 145.925 87.1583 147.625 87.1583 147.625C89.8204 148.608 90.2132 149.718 90.2447 150.225Z" fill="white"/>
<path opacity="0.1" d="M90.2447 150.225C90.2516 150.32 90.2416 150.415 90.2151 150.506C90.2151 150.506 83.4639 151.629 82.0825 150.506C81.6933 150.179 81.2396 149.936 80.7506 149.793C80.2616 149.65 79.748 149.611 79.2428 149.677C79.2428 149.677 76.6279 149.748 76.1938 148.891C76.0122 148.529 76.0576 147.833 76.1701 147.145C77.1766 147.246 78.7652 147.495 79.3888 148.091C80.3321 148.997 81.9306 149.901 82.9114 149.972C83.679 150.021 88.2712 150.166 90.2447 150.225Z" fill="black"/>
<path opacity="0.1" d="M68.6772 151.81C68.6772 151.81 65.5197 152.965 63.3489 153.111C62.1964 153.187 61.5906 152.484 61.2808 151.804C62.084 152.073 63.1989 152.356 63.7851 152.096C64.4797 151.79 66.9426 151.591 68.324 151.507C68.4291 151.621 68.5477 151.723 68.6772 151.81Z" fill="black"/>
<path d="M73.362 58.6738C70.757 57.6655 67.4061 54.334 68.2429 52.7773C68.4287 52.3844 68.5391 51.9605 68.5685 51.5272C68.6223 50.9391 68.6302 50.3476 68.5922 49.7582C68.5335 48.793 68.4169 47.8321 68.2429 46.8807C68.2429 46.8807 76.3754 47.0635 75.9018 48.2566C75.7636 48.6065 75.7419 49.2138 75.7794 49.8939C75.8169 50.5739 75.9156 51.3424 76.0182 51.993C76.1603 52.8854 76.3024 53.5654 76.3024 53.5654C76.3024 53.5654 75.8051 54.2593 75.513 54.2966C75.2209 54.334 77.0997 60.1106 73.362 58.6738Z" fill="#CF6F80"/>
<path opacity="0.1" d="M66.7055 146.79L66.6444 146.856C64.2131 143.928 61.2727 147.578 61.2727 147.578L61.2292 147.501L61.3792 145.842L65.9912 144.649L66.6444 146.638L66.7055 146.79Z" fill="black"/>
<path opacity="0.1" d="M84.6897 144.649C84.6897 144.649 82.9136 144.612 81.9663 145.445C81.0191 146.279 76.4407 145.626 76.638 145.445C76.6965 145.356 76.7318 145.253 76.7407 145.146L77.3623 144.649L84.6403 144.435C84.668 144.567 84.6897 144.649 84.6897 144.649Z" fill="black"/>
<path d="M69.7309 121.651C69.5987 121.977 69.4982 122.314 69.431 122.659C69.2664 123.604 69.2207 124.565 69.2948 125.521C69.3678 126.897 69.2948 136.117 69.2948 136.117C69.2948 136.117 67.7338 138.576 66.8635 139.443C65.9932 140.309 68.6396 141.866 68.6396 141.866C69.0343 144.107 66.6425 146.638 66.6425 146.638C64.2112 143.71 61.2708 147.362 61.2708 147.362C61.2708 147.362 59.6723 144.61 59.2737 143.627C58.875 142.644 60.8347 141.964 61.5234 141.565C62.2121 141.166 61.4899 138.814 61.4899 138.814C61.4899 138.814 60.9077 136.752 60.217 134.871C59.5263 132.99 60.9787 123.626 60.9787 123.626C60.9787 123.626 61.0537 121.963 61.2333 121.383C61.3239 120.965 61.3419 120.534 61.2866 120.11C61.2747 119.966 61.2609 119.846 61.2511 119.766C61.2412 119.685 61.2333 119.648 61.2333 119.648L61.2609 119.601L62.2477 117.769C62.2477 117.769 70.2046 120.497 69.7309 121.651Z" fill="#587EEC"/>
<path d="M84.6896 144.433C84.6896 144.433 82.9135 144.396 81.9663 145.219C81.019 146.043 76.4406 145.4 76.638 145.219C76.8353 145.039 76.8195 143.7 76.8195 143.7C74.1337 140.048 76.4249 138.566 76.4249 138.566C76.4249 138.566 75.225 132.817 75.0079 130.684C74.856 129.195 74.6685 125.191 74.5679 122.905C74.5244 121.922 74.4988 121.246 74.4988 121.246L76.6932 120.806L76.9754 120.749L82.2682 119.691C82.2682 119.691 82.4142 120.674 82.5129 121.478C82.5621 121.821 82.5898 122.167 82.5958 122.514C82.5603 122.907 82.5958 124.137 82.5958 124.137L82.7754 127.827C82.658 128.214 82.5975 128.615 82.5958 129.02C82.6313 129.489 83.32 136.215 83.32 136.215C83.32 136.215 84.5179 140.229 84.1094 140.518C83.7009 140.807 84.6896 144.433 84.6896 144.433Z" fill="#587EEC"/>
<path opacity="0.1" d="M75.9018 48.2566C75.7637 48.6065 75.742 49.2138 75.7795 49.8939C74.6902 50.5472 73.4379 50.8812 72.1665 50.8576C70.8952 50.834 69.6563 50.4536 68.5922 49.7602C68.5336 48.7943 68.417 47.8328 68.2429 46.8807C68.2429 46.8807 76.3755 47.0596 75.9018 48.2566Z" fill="black"/>
<path d="M79.0455 43.9128C79.047 44.6211 78.9351 45.3251 78.7139 45.9983C78.2195 47.5065 77.2057 48.7921 75.8516 49.6279C74.4975 50.4637 72.8904 50.7958 71.3142 50.5655C69.7381 50.3352 68.2944 49.5574 67.2384 48.3695C66.1823 47.1816 65.5819 45.6602 65.5432 44.074C65.5432 44.019 65.5432 43.9679 65.5432 43.9128C65.5279 43.02 65.6912 42.1331 66.0237 41.3038C66.3561 40.4746 66.851 39.7195 67.4795 39.0827C68.108 38.4459 68.8576 37.9402 69.6844 37.5949C70.5112 37.2497 71.3988 37.0719 72.2953 37.0719C73.1919 37.0719 74.0794 37.2497 74.9063 37.5949C75.7331 37.9402 76.4826 38.4459 77.1111 39.0827C77.7396 39.7195 78.2346 40.4746 78.567 41.3038C78.8994 42.1331 79.0628 43.02 79.0474 43.9128H79.0455Z" fill="#CF6F80"/>
<path opacity="0.1" d="M73.362 58.6737C70.757 57.6654 67.4061 54.3338 68.2429 52.7772C68.4287 52.3843 68.5391 51.9604 68.5685 51.5271L72.1345 54.4459L74.3408 56.2483L76.0182 51.9949C76.1603 52.8872 76.3024 53.5673 76.3024 53.5673C76.3024 53.5673 75.8051 54.2611 75.513 54.2985C75.2209 54.3358 77.0997 60.1105 73.362 58.6737Z" fill="black"/>
<path d="M82.5838 71.5735L79.6059 121.399L75.7222 121.653L65.6655 92.7617L67.3153 58.4616L67.6626 51.2147L72.1345 54.8725L74.3427 56.6749L76.0695 52.2977L79.2803 55.0848L82.5838 71.5735Z" fill="#587EEC"/>
<path opacity="0.1" d="M69.731 121.651C69.5987 121.976 69.4983 122.314 69.431 122.659C66.6051 122.224 63.8604 121.37 61.2886 120.125L61.2354 120.098L61.2531 119.782L61.263 119.616L62.2497 117.785C62.2497 117.785 70.2046 120.497 69.731 121.651Z" fill="black"/>
<path opacity="0.1" d="M76.7385 122.667C76.0161 122.789 75.2874 122.872 74.5559 122.915C74.5125 121.932 74.4868 121.256 74.4868 121.256L76.6813 120.815L76.7385 122.667Z" fill="black"/>
<path opacity="0.1" d="M82.5011 121.488C81.098 121.851 78.9311 122.26 76.9912 122.005L76.9636 120.758L82.2564 119.701C82.2564 119.701 82.4024 120.674 82.5011 121.488Z" fill="black"/>
<path opacity="0.1" d="M76.9558 122.232C68.8647 123.608 61.4544 119.664 61.4544 119.664L61.5255 118.327C61.5255 118.327 61.709 103.175 61.1998 102.013C60.6907 100.852 60.294 94.961 60.5822 94.0569C60.8703 93.1528 59.5303 79.5947 59.5303 79.5947L59.3132 74.0912L51.3682 70.8855L54.9204 63.5109C55.4001 62.4769 55.8128 61.4134 56.1557 60.3268C56.7734 58.4124 59.6408 56.5314 59.6408 56.5314C59.6408 56.5314 62.5812 54.6523 63.7436 54.7231C64.906 54.7939 66.4295 53.0603 66.4295 53.0603C67.5543 50.2044 68.5726 51.4977 68.5726 51.4977C68.5726 51.6333 68.5726 51.4977 68.5173 51.9203C68.1227 55.0553 74.8995 64.9614 74.9961 65.1364L75.6415 80.7936L76.2947 100.608L76.9558 122.232Z" fill="black"/>
<path d="M76.7385 122.233C68.6474 123.608 61.2352 119.664 61.2352 119.664L61.3082 118.327C61.3082 118.327 61.4917 103.175 60.9806 102.013C60.4695 100.852 60.0748 94.9611 60.3649 94.057C60.655 93.1528 59.3131 79.5947 59.3131 79.5947L59.094 74.0913L51.145 70.8738L54.6972 63.4992C55.1759 62.4648 55.5886 61.4013 55.9326 60.315C56.5483 58.4006 59.4177 56.5196 59.4177 56.5196C59.4177 56.5196 62.3581 54.6406 63.5185 54.7114C64.6789 54.7821 66.2043 53.0486 66.2043 53.0486C67.3312 50.1927 68.5724 51.486 68.5724 51.486C68.5724 51.6216 68.454 51.6825 68.5172 51.9086C69.3855 54.9492 74.6822 64.9497 74.7789 65.1246L75.4321 80.7819L76.0853 100.596L76.7385 122.233Z" fill="white"/>
<path opacity="0.1" d="M74.5579 65.5708C73.6877 65.2091 69.0777 59.9671 69.0777 59.9671V58.774C68.9099 58.3809 67.9134 58.6207 67.1042 58.8959L67.4516 51.649L67.8463 51.9753C68.7106 55.014 74.4573 65.3958 74.5579 65.5708Z" fill="black"/>
<path d="M74.7772 65.1364C73.9049 64.7748 69.295 59.5328 69.295 59.5328V58.3397C69.1272 57.9466 68.1306 58.1864 67.3215 58.4616L67.6708 51.2147L68.0655 51.541C68.9319 54.5797 74.6805 64.9635 74.7772 65.1364Z" fill="white"/>
<path opacity="0.1" d="M61.4543 91.2796C61.5628 91.2796 67.0805 90.7018 67.0805 90.7018C67.0805 90.7018 70.4216 97.245 70.2025 98.837C69.9835 100.429 69.5868 101.838 68.2429 101.589C66.899 101.339 61.0103 101.785 61.0103 101.785L61.4543 91.2796Z" fill="black"/>
<path d="M61.235 90.8453C61.3436 90.8453 66.8613 90.2675 66.8613 90.2675C66.8613 90.2675 70.2004 96.8126 69.9833 98.4027C69.7662 99.9928 69.3656 101.404 68.0237 101.154C66.6817 100.905 60.791 101.351 60.791 101.351L61.235 90.8453Z" fill="white"/>
<path d="M65.3934 87.7733C65.3934 87.7733 70.4572 90.4838 70.5657 91.3112C70.6743 92.1387 67.9884 90.9496 67.4082 90.8061C67.0264 90.7145 66.6376 90.654 66.2459 90.6253L62.376 90.7295L65.3934 87.7733Z" fill="#CF6F80"/>
<path opacity="0.1" d="M73.1449 65.9088C73.4392 65.9088 73.6777 65.6712 73.6777 65.3781C73.6777 65.085 73.4392 64.8474 73.1449 64.8474C72.8506 64.8474 72.6121 65.085 72.6121 65.3781C72.6121 65.6712 72.8506 65.9088 73.1449 65.9088Z" fill="black"/>
<path d="M73.1449 65.6927C73.4392 65.6927 73.6777 65.4551 73.6777 65.162C73.6777 64.8689 73.4392 64.6313 73.1449 64.6313C72.8506 64.6313 72.6121 64.8689 72.6121 65.162C72.6121 65.4551 72.8506 65.6927 73.1449 65.6927Z" fill="#3F3D56"/>
<path opacity="0.1" d="M74.1258 88.8818C74.4201 88.8818 74.6587 88.6442 74.6587 88.3511C74.6587 88.058 74.4201 87.8204 74.1258 87.8204C73.8316 87.8204 73.593 88.058 73.593 88.3511C73.593 88.6442 73.8316 88.8818 74.1258 88.8818Z" fill="black"/>
<path d="M74.1258 88.6636C74.4201 88.6636 74.6587 88.426 74.6587 88.1329C74.6587 87.8398 74.4201 87.6022 74.1258 87.6022C73.8316 87.6022 73.593 87.8398 73.593 88.1329C73.593 88.426 73.8316 88.6636 74.1258 88.6636Z" fill="#3F3D56"/>
<path opacity="0.1" d="M73.6759 77.3952C73.9702 77.3952 74.2087 77.1576 74.2087 76.8645C74.2087 76.5715 73.9702 76.3339 73.6759 76.3339C73.3816 76.3339 73.1431 76.5715 73.1431 76.8645C73.1431 77.1576 73.3816 77.3952 73.6759 77.3952Z" fill="black"/>
<path d="M73.6759 77.1792C73.9702 77.1792 74.2087 76.9416 74.2087 76.6485C74.2087 76.3554 73.9702 76.1178 73.6759 76.1178C73.3816 76.1178 73.1431 76.3554 73.1431 76.6485C73.1431 76.9416 73.3816 77.1792 73.6759 77.1792Z" fill="#3F3D56"/>
<path d="M85.9585 90.5151C85.9585 90.5151 86.3216 91.0576 85.9585 91.3111C85.5954 91.5647 85.9941 92.1779 85.9941 92.1779C85.9941 92.1779 85.0882 92.7066 85.4869 93.1823C85.8855 93.6579 85.6329 95.8062 85.6329 95.8062L84.5436 97.6027C84.5436 97.6027 84.6087 98.7604 84.6126 100.325C84.6126 102.766 84.4686 106.198 83.6713 107.762L83.7818 120.599C83.7818 120.599 79.9672 121.987 76.7742 121.564L76.3005 100.966C76.3005 100.966 76.9912 89.2847 77.2458 87.044C77.3948 85.8807 77.4555 84.7079 77.4274 83.5355C77.4274 83.5355 77.3188 80.0291 76.9537 78.4016C76.9537 78.4016 76.5591 71.3513 76.5196 69.3996C76.5018 68.466 76.5512 65.7418 76.6064 63.1512C76.6676 60.3189 76.7367 57.6478 76.7367 57.6478L76.0164 51.9714C76.0164 51.9714 76.7367 51.8987 76.9537 52.1876C77.051 52.2781 77.1567 52.359 77.2695 52.4294C78.5128 53.2667 82.9056 55.8415 82.9056 55.8415C82.9056 55.8415 85.3369 56.8046 85.9191 58.1844C86.5012 59.5642 86.9058 60.543 87.188 60.9361C87.4702 61.3292 87.6241 63.1768 87.6241 63.1768C87.6241 63.1768 88.4608 66.5771 89.1141 67.153C89.7673 67.7289 90.2448 71.3926 90.2448 71.3926L84.4725 75.9133C84.4725 75.9133 83.9654 83.4333 83.8568 83.7242C83.7483 84.0151 85.9585 90.5151 85.9585 90.5151Z" fill="white"/>
<path d="M86.1775 90.5152C86.1775 90.5152 86.5386 91.0577 86.1775 91.3112C85.8163 91.5648 86.211 92.178 86.211 92.178C86.211 92.178 85.3111 92.7126 85.7058 93.1883C86.1005 93.6639 85.8519 95.8122 85.8519 95.8122L84.7625 97.6087C84.7625 97.6087 84.8276 98.7664 84.8336 100.331C84.8336 102.772 84.6895 106.204 83.8922 107.768L84.0008 120.605C84.0008 120.605 80.1802 121.993 76.9911 121.57L76.5195 100.972C76.5195 100.972 77.2102 89.2907 77.4648 87.05C77.6139 85.8867 77.6739 84.7139 77.6443 83.5415C77.6443 83.5415 77.5358 80.0351 77.1727 78.4076C77.1727 78.4076 76.778 71.3573 76.7366 69.4056C76.7188 68.472 76.7701 65.7478 76.8234 63.1572C76.8846 60.3249 76.9536 57.6538 76.9536 57.6538L76.0024 51.9008C76.0024 51.9008 76.9536 51.9008 77.1727 52.1936C77.269 52.2852 77.3749 52.3662 77.4884 52.4354C78.7317 53.2727 83.1265 55.8475 83.1265 55.8475C83.1265 55.8475 85.5558 56.8106 86.138 58.1904C86.7202 59.5702 87.1247 60.549 87.4089 60.9421C87.6931 61.3352 87.8431 63.1828 87.8431 63.1828C87.8431 63.1828 88.6798 66.5831 89.333 67.159C89.9862 67.7349 90.4579 71.3908 90.4579 71.3908L84.6856 75.9114C84.6856 75.9114 84.1784 83.4315 84.0679 83.7224C83.9574 84.0133 86.1775 90.5152 86.1775 90.5152Z" fill="white"/>
<path opacity="0.1" d="M79.2645 59.3224L79.7855 60.8358L77.0424 63.5875C77.1036 60.7572 77.1726 58.0841 77.1726 58.0841L76.2214 52.3311C76.2214 52.3311 77.1726 52.3311 77.3917 52.6239C77.4877 52.7152 77.5936 52.7956 77.7074 52.8637L80.04 59.5661L79.2645 59.3224Z" fill="black"/>
<path d="M79.0455 58.8882L79.5684 60.4016L76.8254 63.1533C76.8865 60.321 76.9556 57.6499 76.9556 57.6499L76.0024 51.8969C76.0024 51.8969 76.9556 51.8969 77.1727 52.1897C77.2695 52.2807 77.3753 52.3617 77.4884 52.4315L79.823 59.1319L79.0455 58.8882Z" fill="white"/>
<path opacity="0.1" d="M79.0455 43.9128C79.047 44.6211 78.9351 45.3251 78.7139 45.9983C78.6767 46.0041 78.6386 46.0023 78.602 45.9932C78.5654 45.9841 78.531 45.9678 78.5008 45.9452C78.4495 44.1762 77.5753 42.5154 76.4997 41.1022C76.1978 40.6755 75.8317 40.2976 75.4144 39.9818C74.9924 39.6662 74.4676 39.5184 73.9422 39.5671C73.3501 39.6477 72.8272 40.0487 72.2292 40.0998C71.4398 40.1646 70.7334 39.6202 69.9499 39.5927C69.6314 39.5957 69.3172 39.6663 69.0283 39.7998C68.7394 39.9334 68.4824 40.1268 68.2745 40.3671C67.8629 40.852 67.5571 41.417 67.3765 42.026C67.0663 42.9494 66.8973 43.9142 66.8753 44.8877C66.8654 45.4381 66.8121 46.128 66.2991 46.3285C66.3377 45.9237 66.2915 45.5154 66.1634 45.1294C66.0354 44.7433 65.8282 44.388 65.5551 44.0858L65.5432 44.074C65.5432 44.019 65.5432 43.9679 65.5432 43.9128C65.5279 43.02 65.6912 42.1331 66.0237 41.3038C66.3561 40.4746 66.851 39.7195 67.4795 39.0827C68.108 38.4459 68.8576 37.9402 69.6844 37.5949C70.5112 37.2497 71.3988 37.0719 72.2953 37.0719C73.1919 37.0719 74.0794 37.2497 74.9063 37.5949C75.7331 37.9402 76.4826 38.4459 77.1111 39.0827C77.7396 39.7195 78.2346 40.4746 78.567 41.3038C78.8994 42.1331 79.0628 43.02 79.0474 43.9128H79.0455Z" fill="black"/>
<path d="M75.0907 33.2343C74.0653 32.7538 72.8989 32.663 71.8109 32.9788C71.2642 33.1399 70.7492 33.4013 70.1946 33.533C69.0106 33.818 67.6292 33.5094 66.6128 34.1993C66.0484 34.5924 65.709 35.2135 65.3933 35.817L64.6039 37.3147C64.1737 38.1343 63.7395 38.9677 63.5599 39.8698C63.3804 40.772 63.4889 41.7823 64.0632 42.5076C64.4815 43.0363 65.0992 43.3684 65.5531 43.8657C65.825 44.1682 66.0313 44.5233 66.159 44.9089C66.2867 45.2945 66.333 45.7022 66.2951 46.1064C66.8102 45.9099 66.8595 45.218 66.8714 44.6676C66.8934 43.6941 67.0623 42.7293 67.3726 41.8059C67.5527 41.1967 67.8586 40.6317 68.2705 40.147C68.4786 39.9069 68.7357 39.7136 69.0245 39.5801C69.3134 39.4466 69.6275 39.3758 69.946 39.3726C70.7354 39.4001 71.4438 39.9426 72.2253 39.8777C72.8173 39.8286 73.3423 39.4256 73.9383 39.347C74.4637 39.2975 74.9888 39.4454 75.4104 39.7617C75.8277 40.077 76.1932 40.455 76.4939 40.8821C77.5714 42.2953 78.4456 43.9522 78.4969 45.7251C78.7199 45.8882 79.0416 45.676 79.1521 45.4244C79.2626 45.1728 79.2665 44.878 79.4066 44.6382C79.5685 44.361 79.8783 44.2136 80.121 44.0053C80.7368 43.4765 80.8907 42.5862 80.867 41.7783C80.8433 40.9705 80.6854 40.1509 80.8394 39.3568C80.9321 38.8694 81.1413 38.4134 81.2558 37.9318C81.3702 37.4503 81.384 36.9098 81.1137 36.4951C80.719 35.8857 79.8882 35.7659 79.1639 35.7089C78.341 35.6381 77.6049 35.7285 77.08 35.0386C76.8336 34.6786 76.5562 34.3406 76.2511 34.0283C76.1465 33.9261 75.0907 33.2775 75.0907 33.2343Z" fill="#512E4E"/>
<path opacity="0.1" d="M53.6415 74.6827L51.5792 70.8854L50.926 76.7446C50.926 76.7446 51.2891 79.3469 51.2161 79.7459C51.1431 80.1449 52.7041 83.7221 52.7041 83.7221C52.7041 83.7221 57.8607 92.8696 59.9664 93.3413L67.0806 88.2782L65.194 85.8921C65.194 85.8921 64.5408 85.6385 64.377 85.8921C64.377 85.8921 60.8741 79.8894 60.511 79.455C60.1479 79.0206 60.219 78.1538 60.219 78.1538C60.219 78.1538 59.6743 77.576 59.8558 77.0335C60.0374 76.491 58.804 74.61 58.804 74.61L59.9289 73.5624L53.6415 74.6827Z" fill="black"/>
<path d="M51.6879 70.4531L51.1432 70.8855L50.49 76.7447C50.49 76.7447 50.8531 79.3471 50.7801 79.7461C50.7071 80.1451 52.27 83.7223 52.27 83.7223C52.27 83.7223 57.4247 92.8698 59.5303 93.3415L66.6465 88.2783L64.758 85.8922C64.758 85.8922 64.1047 85.6387 63.9409 85.8922C63.9409 85.8922 60.4381 79.8895 60.075 79.4552C59.7119 79.0208 59.7849 78.154 59.7849 78.154C59.7849 78.154 59.2402 77.5761 59.4218 77.0337C59.6033 76.4912 58.368 74.6102 58.368 74.6102L59.4928 73.5626L51.6879 70.4531Z" fill="white"/>
<path opacity="0.1" d="M85.4867 93.4063C85.8814 93.884 85.6328 96.0283 85.6328 96.0283L84.5434 97.8248C84.5434 97.8248 84.6086 98.9845 84.6125 100.547L82.7812 101.117C82.6156 101.169 82.4402 101.18 82.2694 101.15C82.0986 101.12 81.9374 101.05 81.7994 100.946C81.6613 100.841 81.5503 100.705 81.4756 100.55C81.4009 100.394 81.3648 100.222 81.3701 100.05L81.6859 89.9058L85.9584 91.5332C85.5953 91.7848 85.9939 92.402 85.9939 92.402C85.9939 92.402 85.0881 92.9287 85.4867 93.4063Z" fill="black"/>
<path d="M85.7057 93.1882C86.1004 93.6658 85.8518 95.8121 85.8518 95.8121L84.7624 97.6086C84.7624 97.6086 84.8275 98.7663 84.8335 100.331L82.9686 100.911C82.8065 100.961 82.6347 100.972 82.4675 100.942C82.3004 100.913 82.1427 100.844 82.0075 100.742C81.8724 100.64 81.7637 100.507 81.6906 100.354C81.6175 100.202 81.582 100.034 81.5872 99.865L81.9049 89.6896L86.1794 91.317C85.8143 91.5686 86.2129 92.1838 86.2129 92.1838C86.2129 92.1838 85.311 92.7125 85.7057 93.1882Z" fill="white"/>
<path d="M87.1209 88.3531C87.1209 88.3531 86.8308 90.1987 86.1046 90.3068C85.3783 90.4149 85.0527 93.2924 84.3285 93.1902C83.6042 93.088 84.0838 90.5151 84.1094 90.0159C84.1351 89.5166 83.32 87.4489 83.9298 86.9792C84.5396 86.5094 86.4696 86.9792 86.4696 86.9792L87.1209 88.3531Z" fill="#CF6F80"/>
<path opacity="0.1" d="M88.666 74.1405L90.0356 71.3888C90.0356 71.3888 90.5803 73.486 90.5803 74.6063C90.5803 75.7267 91.342 75.8367 91.342 75.8367C91.342 75.8367 92.1768 76.8195 91.7367 77.5349C91.2966 78.2504 91.119 80.0311 91.119 80.0311C91.119 80.0311 91.2631 83.4295 90.6099 83.8993C89.9567 84.369 89.8205 85.4913 89.8205 85.4913C89.8205 85.4913 88.6207 87.6239 88.6582 88.131C88.6956 88.6381 86.9886 92.0719 86.9886 92.0719C86.9886 92.0719 87.8234 87.8047 82.9589 85.9611C82.9589 85.9611 82.9214 84.5125 83.2845 84.1155C83.6476 83.7184 84.214 83.5376 83.8588 81.5308C83.5035 79.524 83.7561 77.1261 83.7561 76.6446C83.7561 76.163 84.8455 73.1597 84.8455 73.1597L88.666 74.1405Z" fill="black"/>
<path d="M89.2581 70.9956L90.454 71.3887C90.454 71.3887 91.0006 73.4859 91.0006 74.6062C91.0006 75.7266 91.7624 75.8367 91.7624 75.8367C91.7624 75.8367 92.5971 76.8194 92.157 77.5349C91.717 78.2503 91.5413 80.0311 91.5413 80.0311C91.5413 80.0311 91.6854 83.4294 91.0322 83.8992C90.379 84.3689 90.2329 85.4913 90.2329 85.4913C90.2329 85.4913 89.0351 87.6238 89.0726 88.1309C89.1101 88.638 87.4011 92.0718 87.4011 92.0718C87.4011 92.0718 88.2378 87.8047 83.3713 85.961C83.3713 85.961 83.3358 84.5124 83.6989 84.1154C84.062 83.7184 84.6284 83.5375 84.2732 81.5307C83.9179 79.524 84.1706 77.126 84.1706 76.6445C84.1706 76.1629 85.2599 73.1596 85.2599 73.1596L89.2581 70.9956Z" fill="white"/>
<path opacity="0.1" d="M62.8435 142.318C62.8435 142.318 64.7498 141.125 66.001 141.992C67.2522 142.858 62.8435 142.318 62.8435 142.318Z" fill="black"/>
<path opacity="0.1" d="M77.6562 138.629C77.6562 138.629 79.3435 138.413 80.7605 139.932C82.1774 141.451 77.6562 138.629 77.6562 138.629Z" fill="black"/>
<g opacity="0.1">
<path opacity="0.1" d="M80.1249 43.5748C79.8822 43.7832 79.5704 43.9325 79.4086 44.2097C79.2704 44.4475 79.2665 44.7404 79.156 44.9959C79.0455 45.2514 78.7238 45.4598 78.5008 45.2986C78.4495 43.5296 77.5733 41.8688 76.4978 40.4536C76.1971 40.0265 75.8316 39.6486 75.4143 39.3333C74.992 39.017 74.4663 38.8691 73.9402 38.9185C73.3482 38.9991 72.8272 39.4001 72.2292 39.4492C71.4398 39.516 70.7314 38.9716 69.9479 38.9441C69.6295 38.9472 69.3155 39.0181 69.0269 39.152C68.7383 39.2859 68.4817 39.4797 68.2744 39.7205C67.8625 40.2044 67.5566 40.7688 67.3765 41.3774C67.0664 42.3009 66.8974 43.2656 66.8753 44.2392C66.8634 44.7875 66.8121 45.4715 66.303 45.676C66.3148 45.8212 66.3148 45.9671 66.303 46.1123C66.8161 45.9157 66.8674 45.2239 66.8792 44.6735C66.9012 43.7 67.0702 42.7352 67.3805 41.8118C67.5606 41.2026 67.8664 40.6376 68.2784 40.1529C68.4861 39.9128 68.7428 39.7196 69.0313 39.586C69.3199 39.4525 69.6337 39.3817 69.9519 39.3785C70.7412 39.406 71.4517 39.9485 72.2332 39.8836C72.8252 39.8345 73.3501 39.4315 73.9441 39.3529C74.4702 39.3035 74.9959 39.4514 75.4183 39.7676C75.8355 40.0829 76.201 40.4609 76.5017 40.888C77.5772 42.3012 78.4534 43.9581 78.5047 45.731C78.7277 45.8941 79.0494 45.6818 79.1599 45.4303C79.2704 45.1787 79.2744 44.8839 79.4125 44.6441C79.5743 44.3669 79.8861 44.2195 80.1289 44.0112C80.7446 43.4824 80.8985 42.5921 80.8748 41.7842C80.8748 41.7587 80.8748 41.7331 80.8748 41.7096C80.8373 42.4093 80.6499 43.1228 80.1249 43.5748Z" fill="black"/>
<path opacity="0.1" d="M65.5573 43.4352C65.1034 42.9379 64.4838 42.6057 64.0674 42.079C63.7168 41.6127 63.5165 41.0513 63.4931 40.4692C63.431 41.1967 63.635 41.9219 64.0674 42.5114C64.4838 43.0401 65.1034 43.3723 65.5573 43.8696C65.9931 44.356 66.2548 44.9725 66.3013 45.6228C66.3315 45.2271 66.2812 44.8293 66.1534 44.4534C66.0255 44.0775 65.8228 43.7312 65.5573 43.4352Z" fill="black"/>
<path opacity="0.1" d="M81.2597 37.5012C81.1432 37.9828 80.936 38.4407 80.8413 38.9262C80.7852 39.2506 80.7647 39.5802 80.7801 39.909C80.7867 39.7217 80.8072 39.5351 80.8413 39.3508C80.936 38.8633 81.1432 38.4073 81.2597 37.9258C81.3275 37.6602 81.3495 37.385 81.3248 37.1121C81.3125 37.2432 81.2908 37.3732 81.2597 37.5012Z" fill="black"/>
</g>
<path opacity="0.1" d="M27.2861 150.31C37.906 150.31 46.5152 148.933 46.5152 147.234C46.5152 145.535 37.906 144.158 27.2861 144.158C16.6661 144.158 8.05688 145.535 8.05688 147.234C8.05688 148.933 16.6661 150.31 27.2861 150.31Z" fill="#587EEC"/>
<path d="M27.9058 88.308H26.6685V116.055H27.9058V88.308Z" fill="#535461"/>
<path d="M35.681 115.97L35.604 117.221L35.4935 118.99L35.4481 119.725L35.3396 121.494L35.2922 122.229L35.1817 123.998L33.9345 144.06C33.8803 144.923 33.4979 145.733 32.8651 146.325C32.2323 146.917 31.3967 147.247 30.5283 147.248H24.0436C23.1755 147.247 22.3401 146.917 21.7076 146.325C21.0752 145.733 20.6932 144.923 20.6394 144.06L19.3981 123.984L19.2876 122.215L19.2422 121.48L19.1317 119.711L19.0863 118.976L18.9758 117.207L18.8969 115.957C18.8832 115.716 18.919 115.475 19.0021 115.249C19.0852 115.023 19.2138 114.816 19.3801 114.641C19.5464 114.466 19.7469 114.326 19.9692 114.231C20.1916 114.136 20.431 114.087 20.673 114.088H33.9365C34.1775 114.09 34.4156 114.141 34.636 114.238C34.8563 114.335 35.0544 114.477 35.2178 114.653C35.3813 114.829 35.5067 115.037 35.5864 115.264C35.6661 115.491 35.6982 115.731 35.681 115.97Z" fill="#3F3D56"/>
<path d="M35.6043 117.221L35.4938 118.984H19.0788L18.9683 117.221H35.6043Z" fill="#9D9CB5"/>
<path d="M35.4485 119.719L35.34 121.484H19.2348L19.1243 119.719H35.4485Z" fill="#9D9CB5"/>
<path d="M35.2923 122.221L35.1837 123.984H19.3903L19.2798 122.221H35.2923Z" fill="#9D9CB5"/>
<path d="M17.0795 98.7073C24.2846 103.9 27.2921 112.022 27.2921 112.022C27.2921 112.022 18.609 111.725 11.402 106.532C4.19496 101.339 1.19336 93.2196 1.19336 93.2196C1.19336 93.2196 9.87254 93.5144 17.0795 98.7073Z" fill="#587EEC"/>
<path d="M1.1875 93.2196C1.1875 93.2196 10.2022 98.2022 13.0932 102.328C15.9843 106.453 27.2921 112.022 27.2921 112.022" stroke="#535461" stroke-width="1.30854" stroke-miterlimit="10"/>
<path d="M21.7309 88.2468C25.6521 91.0713 27.292 95.4917 27.292 95.4917C27.292 95.4917 22.5656 95.3305 18.6424 92.5061C14.7192 89.6817 13.0833 85.2593 13.0833 85.2593C13.0833 85.2593 17.8077 85.4204 21.7309 88.2468Z" fill="#587EEC"/>
<path d="M13.0833 85.2593C13.0833 85.2593 17.9892 87.9717 19.562 90.2163C21.1349 92.4609 27.292 95.4917 27.292 95.4917" stroke="#535461" stroke-width="1.30854" stroke-miterlimit="10"/>
<path d="M32.9856 95.2677C28.4803 100.199 27.5271 106.644 27.5271 106.644C27.5271 106.644 33.8796 105.091 38.381 100.158C42.8824 95.2244 43.8395 88.7815 43.8395 88.7815C43.8395 88.7815 37.491 90.3362 32.9856 95.2677Z" fill="#587EEC"/>
<path d="M43.8435 88.7834C43.8435 88.7834 37.9745 93.8387 36.4826 97.3216C34.9906 100.805 27.5271 106.644 27.5271 106.644" stroke="#535461" stroke-width="1.30854" stroke-miterlimit="10"/>
<path d="M198.371 93.5322C198.371 93.5322 195.113 77.3875 196.36 75.3787C196.36 75.3787 196.406 73.5115 196.331 71.1313C196.331 71.0409 196.331 70.9504 196.331 70.8581C196.55 71.0038 196.779 71.1351 197.016 71.2512C198.165 71.8392 199.484 72.0088 200.745 71.7307L199.759 70.636C199.522 70.3745 199.275 70.0915 199.224 69.7456C199.173 69.3996 199.315 69.0911 199.437 68.7825C200.374 66.4239 200.424 63.4579 198.618 61.6575C197.093 60.1441 196.722 58.1903 195.066 56.8086C193.856 55.7964 193.191 54.3124 192.564 52.8776C192.033 51.6648 191.498 50.4423 191.194 49.1569C190.957 48.1525 190.863 47.1127 190.537 46.1319C190.211 45.1511 189.601 44.1979 188.648 43.7596C188.309 43.6043 187.932 43.5158 187.622 43.3095C187.216 43.0363 186.971 42.5921 186.677 42.2029C185.183 40.2374 180.18 41.3951 177.812 42.193C177.168 42.394 176.572 42.723 176.06 43.1601L176.081 43.1247C176.099 43.0952 176.121 43.0657 176.141 43.0363C175.881 43.245 175.658 43.4939 175.478 43.7733C175.132 44.3178 174.988 44.9526 174.7 45.5423C174.353 46.24 172.421 48.1879 173.252 48.9721C173.31 49.0248 173.376 49.0673 173.449 49.0979C173.761 49.2272 174.104 49.2614 174.436 49.1962L174.4 49.2807C174.116 49.9726 173.971 50.713 173.972 51.4604C173.972 54.6898 176.646 57.3078 179.947 57.3078C180.568 57.3084 181.185 57.2136 181.777 57.0268C181.791 57.1014 181.802 57.1761 181.816 57.2508C181.816 57.2803 181.826 57.3098 181.83 57.3393L181.725 57.4847C181.72 57.4758 181.714 57.4672 181.708 57.4592L178.609 61.7715C178.136 62.1037 175.409 64.0692 175.255 65.5433C175.093 67.157 174.931 69.0459 174.931 69.0459L174.909 69.4508C174.774 69.5634 174.615 69.6455 174.445 69.6913C174.275 69.7372 174.096 69.7456 173.923 69.7161C172.956 69.5589 172.956 73.254 172.956 73.254C172.956 73.254 172.312 73.8437 171.87 73.3326C171.428 72.8216 170.26 74.5532 170.26 74.5532L162.938 74.8677L162.771 74.8775L162.376 73.6609C162.333 73.5325 162.242 73.4261 162.121 73.3646C162 73.3032 161.86 73.2917 161.731 73.3326C161.7 73.3427 161.67 73.3551 161.642 73.37L161.614 73.3857L161.563 73.4211L161.537 73.4447C161.523 73.4575 161.51 73.4713 161.498 73.4859L161.474 73.5135L161.462 73.5253C161.417 73.588 161.386 73.6605 161.374 73.737C161.362 73.8134 161.368 73.8917 161.391 73.9655L161.731 75.0092C160.318 75.2923 158.873 76.0903 160.051 78.2877L154.08 77.189L156.012 78.8046L165.985 80.8546C165.853 81.0905 165.94 81.4325 166.352 81.9141C168.128 83.9916 171.365 84.5557 172.667 84.7012C173.011 85.4675 173.441 86.1928 173.948 86.8632L173.836 88.9329C173.836 88.9329 170.538 104.708 169.934 105.508C170.239 105.164 170.518 104.798 170.769 104.413C169.812 107.654 168.474 112.091 168.123 112.755C167.558 113.816 167.035 118.111 167.679 118.386C167.876 118.471 168.44 118.429 169.245 118.368V118.724L169.21 132.206C169.21 132.206 169.372 140.474 168.928 141.263C168.484 142.051 168.365 143.704 168.365 143.704C168.365 143.704 166.589 146.965 165.182 148.276C165.173 148.286 165.162 148.295 165.151 148.303L165.107 147.997C165.107 147.997 163.416 150.123 159.674 150.003C159.674 150.003 157.423 151.462 160.762 151.54C164.101 151.619 168.365 151.422 168.365 151.422C168.365 151.422 171.343 146.902 173.838 147.491V150.917H174.601V147.436C174.956 147.204 175.259 146.903 175.492 146.55C175.726 146.198 175.886 145.802 175.961 145.386C176.026 144.958 175.979 144.52 175.822 144.116C175.666 143.711 175.406 143.355 175.069 143.081C174.918 142.944 174.796 142.778 174.712 142.593C174.628 142.408 174.584 142.207 174.582 142.004L174.554 142.027C174.554 141.958 174.536 141.888 174.528 141.815C174.309 140.046 174.035 136.396 175.004 133.695C176.332 129.992 176.735 124.835 175.768 121.765C175.456 120.783 175.199 119.785 175 118.775C174.976 118.647 174.955 118.526 174.935 118.412C175.596 118.501 176.25 118.632 176.895 118.805C179.134 119.42 184.034 119.534 188.218 119.501C188.228 119.615 188.24 119.734 188.254 119.854C188.328 120.688 188.484 121.512 188.719 122.315C189.244 123.888 189.485 130.82 189.485 130.82C189.485 130.82 190.162 136.52 189.793 138.839C189.596 140.129 189.398 141.424 189.286 142.725V142.751C189.286 142.751 188.177 145.895 187.366 147.603C187.346 147.647 187.324 147.69 187.304 147.731C187.088 147.751 186.875 147.798 186.671 147.871C186.671 147.871 185.584 150.033 184.5 150.39C183.417 150.748 183.776 151.926 186.229 151.493C188.682 151.061 192.386 150.707 192.386 150.707L192.546 148.502L193.3 147.562L193.102 149.762L193.906 149.604L193.799 146.929L195.032 145.392C195.032 145.392 196.522 144.071 194.308 141.473V141.53C194.284 141.493 194.263 141.453 194.237 141.416V141.404C193.87 140.838 193.578 139.783 194.113 137.91C195.08 134.525 195.642 131.453 195.642 131.453C195.642 131.453 197.801 123.223 195.206 119.33H195.32C195.055 118.782 194.867 118.199 194.762 117.6C194.749 117.529 194.737 117.456 194.726 117.382C196.647 117.272 198.531 116.926 200.069 116.179C200.063 116.171 199.137 96.6416 198.371 93.5322ZM173.994 79.9112V79.9505L173.599 79.9702L173.994 79.9112ZM172.64 80.0979C172.575 80.1123 172.514 80.1412 172.462 80.1824C172.292 80.4216 172.186 80.6994 172.152 80.9903L171.537 80.8527C171.537 80.8527 171.104 80.7603 170.483 80.6561L170.189 80.3613C170.998 80.2945 171.839 80.1962 172.64 80.0979Z" fill="url(#paint1_linear)"/>
<path d="M193.012 146.957L192.777 149.742L193.564 149.585L193.446 146.564L193.012 146.957Z" fill="#1D2366"/>
<path d="M175.047 133.733C174.098 136.426 174.367 140.06 174.58 141.825C174.659 142.477 174.732 142.874 174.732 142.874C174.732 142.874 173.313 146.094 173.194 146.216C173.076 146.338 169.019 148.804 169.019 148.804L166.183 150.453C166.183 150.453 163.305 149.197 164.685 148.765C164.967 148.652 165.221 148.48 165.429 148.26C166.81 146.953 168.545 143.704 168.545 143.704C168.545 143.704 168.663 142.055 169.097 141.27C169.532 140.486 169.374 132.245 169.374 132.245L169.407 118.811V117.059L174.805 117.099C174.839 117.693 174.916 118.284 175.037 118.868C175.231 119.874 175.482 120.869 175.789 121.847C176.741 124.912 176.346 130.043 175.047 133.733Z" fill="#FFB0B1"/>
<path opacity="0.1" d="M174.732 142.874C174.732 142.874 173.313 146.094 173.194 146.216C173.076 146.338 169.019 148.804 169.019 148.804L166.183 150.453C166.183 150.453 163.305 149.197 164.685 148.765C164.967 148.652 165.221 148.48 165.429 148.26L165.551 149.119L166.496 149.079L174.588 141.829C174.659 142.477 174.732 142.874 174.732 142.874Z" fill="black"/>
<path d="M174.633 142.011L166.497 149.311L165.551 149.351L165.354 147.975C165.354 147.975 163.7 150.094 160.026 149.976C160.026 149.976 157.819 151.428 161.089 151.507C164.359 151.585 168.535 151.389 168.535 151.389C168.535 151.389 171.452 146.868 173.893 147.458V150.872H174.643V147.426C174.992 147.193 175.289 146.891 175.518 146.54C175.746 146.188 175.901 145.795 175.973 145.382C176.038 144.957 175.992 144.523 175.84 144.121C175.687 143.719 175.433 143.363 175.103 143.086C174.955 142.949 174.837 142.782 174.756 142.597C174.676 142.412 174.634 142.213 174.633 142.011Z" fill="#1D2366"/>
<path d="M193.761 137.931C193.236 139.798 193.523 140.85 193.882 141.414V141.426C194.342 142.122 194.663 142.901 194.825 143.719L194.857 143.896L191.155 149.272L189.146 150.058C189.146 150.058 185.915 148.959 186.505 148.645C186.653 148.568 186.884 148.16 187.148 147.595C187.938 145.895 189.027 142.758 189.027 142.758V142.733C189.142 141.437 189.323 140.146 189.524 138.861C189.886 136.547 189.223 130.869 189.223 130.869C189.223 130.869 188.986 123.964 188.473 122.394C188.241 121.595 188.087 120.776 188.013 119.949C187.906 118.966 187.883 118.156 187.883 118.156C187.883 118.156 190.01 115.208 193.909 118.392C194.221 118.646 194.496 118.942 194.724 119.272C197.418 123.089 195.249 131.498 195.249 131.498C195.249 131.498 194.707 134.556 193.761 137.931Z" fill="#FFB0B1"/>
<path opacity="0.1" d="M194.863 143.896L191.161 149.272L189.152 150.058C189.152 150.058 185.921 148.96 186.511 148.645C186.659 148.568 186.89 148.16 187.155 147.596C188.522 147.584 189.231 148.881 189.231 148.881L190.963 148.606C190.963 148.606 193.248 144.132 193.762 143.859C194.275 143.586 193.841 141.817 193.841 141.817V141.367C193.854 141.383 193.866 141.4 193.882 141.416V141.428C194.343 142.124 194.663 142.903 194.825 143.722L194.863 143.896Z" fill="black"/>
<path d="M189.349 148.997C189.349 148.997 188.362 147.193 186.472 147.859C186.472 147.859 185.408 150.021 184.344 150.371C183.281 150.721 183.636 151.9 186.04 151.47C188.443 151.039 192.066 150.683 192.066 150.683L192.224 148.484L194.667 145.384C194.667 145.384 196.124 144.069 193.957 141.481V141.931C193.957 141.931 194.391 143.7 193.878 143.973C193.365 144.246 191.088 148.722 191.088 148.722L189.349 148.997Z" fill="#1D2366"/>
<path opacity="0.1" d="M174.811 117.095C174.845 117.689 174.923 118.28 175.044 118.864C172.822 118.539 170.759 118.701 169.407 118.807V117.055L174.811 117.095Z" fill="black"/>
<path opacity="0.1" d="M194.943 119.762C194.943 119.762 191.786 119.915 188.021 119.947C187.914 118.964 187.89 118.154 187.89 118.154C187.89 118.154 190.018 115.206 193.917 118.39C194.229 118.644 194.503 118.94 194.732 119.271C194.793 119.438 194.864 119.602 194.943 119.762Z" fill="black"/>
<path d="M194.944 119.408C194.944 119.408 181.114 120.074 176.899 118.897C172.683 117.72 168.506 118.74 167.876 118.467C167.247 118.193 167.758 113.914 168.31 112.855C168.863 111.796 171.894 101.082 171.894 101.082L174.811 85.9353L177.883 85.0921L178.1 85.0312L183.454 83.561L187.378 82.4819C187.378 82.4819 195.179 112.816 194.51 115.052C194.267 115.909 194.227 116.81 194.395 117.684C194.497 118.281 194.682 118.861 194.944 119.408Z" fill="#1D2366"/>
<path d="M164.644 75.5771C164.644 75.5771 161.881 78.5254 163.973 80.1686C166.065 81.8117 167.44 80.3258 167.44 80.3258L164.644 75.5771Z" fill="#C7DAF5"/>
<path opacity="0.1" d="M164.644 75.5771C164.644 75.5771 161.881 78.5254 163.973 80.1686C166.065 81.8117 167.44 80.3258 167.44 80.3258L164.644 75.5771Z" fill="black"/>
<path d="M186.965 56.1933C186.965 56.1933 186.641 56.4999 186.154 56.952C185.459 57.5986 184.431 58.544 183.52 59.3361C182.257 60.4309 181.215 61.2348 181.588 60.5489C181.96 59.8629 181.889 58.6679 181.704 57.5495C181.69 57.4748 181.678 57.4001 181.664 57.3274C181.511 56.506 181.307 55.6947 181.055 54.898C181.055 54.898 183.095 52.2721 184.224 51.2363C184.644 50.8432 184.938 50.682 184.956 50.9552C184.976 51.3228 185.252 52.1345 185.596 52.9954C185.605 53.0229 185.615 53.0485 185.627 53.076C185.856 53.6656 186.115 54.271 186.342 54.7938C186.689 55.5958 186.965 56.1933 186.965 56.1933Z" fill="#FFB0B1"/>
<path opacity="0.1" d="M185.627 53.076C185.435 54.1032 184.97 55.0604 184.28 55.8473C183.59 56.6342 182.7 57.2221 181.704 57.5495C181.547 56.6523 181.33 55.7665 181.055 54.898C181.055 54.898 184.897 49.9548 184.956 50.9552C184.97 51.3346 185.27 52.1758 185.627 53.076Z" fill="black"/>
<path opacity="0.1" d="M181.321 58.8704L181.818 58.1726C181.818 58.1726 182.148 60.1735 183.36 59.291C184.571 58.4085 184.631 65.9324 184.631 65.9324L183.33 85.2986L173.933 84.7384L174.199 75.3807L175.263 70.6634L177.893 63.8058L179.458 61.5395L181.321 58.8704Z" fill="black"/>
<path d="M184.631 66.0524L183.447 83.5631L183.322 85.4186L178.083 85.106L177.885 85.0943L173.938 84.8584L174.205 75.4986L175.269 70.7814L177.899 63.9237L179.464 61.6575L181.327 58.9785L181.824 58.2827C181.824 58.2827 182.154 60.2836 183.366 59.4011L183.391 59.3834C184.575 58.6365 184.631 66.0524 184.631 66.0524Z" fill="#1D2366"/>
<path d="M175.401 69.1421C175.401 69.1421 174.929 70.1248 173.982 69.9656C173.034 69.8064 173.036 73.5036 173.036 73.5036C173.036 73.5036 172.407 74.0932 171.973 73.5822C171.538 73.0711 170.394 74.7988 170.394 74.7988L163.222 75.1133C163.222 75.1133 166.413 76.5658 165.788 80.9607C165.788 80.9607 176.622 80.2924 176.977 79.2723C177.333 78.2522 175.401 69.1421 175.401 69.1421Z" fill="white"/>
<path opacity="0.03" d="M175.401 69.1421C175.401 69.1421 174.929 70.1248 173.982 69.9656C173.034 69.8064 173.036 73.5036 173.036 73.5036C173.036 73.5036 172.407 74.0932 171.973 73.5822C171.538 73.0711 170.394 74.7988 170.394 74.7988L163.222 75.1133C163.222 75.1133 166.413 76.5658 165.788 80.9607C165.788 80.9607 176.622 80.2924 176.977 79.2723C177.333 78.2522 175.401 69.1421 175.401 69.1421Z" fill="black"/>
<path d="M154.559 77.4229L156.45 79.0306L172.012 82.2875L170.082 80.3259L154.559 77.4229Z" fill="white"/>
<path d="M181.35 59.4895C181.092 59.8826 180.352 61.8953 179.734 63.6524C179.219 65.1167 178.789 66.4042 178.789 66.4042C178.789 66.4042 177.784 72.9179 177.271 74.0952C176.758 75.2725 177.036 79.864 177.036 79.864L175.124 91.203C175.124 91.203 174.258 97.0504 172.92 100.543C171.6 103.981 170.129 105.592 170.084 105.644C170.676 104.846 173.903 89.1333 173.903 89.1333L174.968 69.317C174.968 69.317 175.124 67.4341 175.282 65.8243C175.44 64.2146 178.637 62.0171 178.637 62.0171L181.719 57.6517C182.029 58.0645 181.822 58.7839 181.35 59.4895Z" fill="white"/>
<path d="M173.313 84.9567C173.313 84.9567 168.774 84.7601 166.575 82.1302C164.377 79.5004 171.657 81.0807 171.657 81.0807L173.549 81.5131L173.313 84.9567Z" fill="#FFB0B1"/>
<path opacity="0.1" d="M194.51 115.054C194.267 115.911 194.227 116.812 194.395 117.686C189.444 118.036 184.147 116.703 184.147 116.703C183.16 117.608 180.561 118.94 180.561 118.94L179.144 101.447C178.239 99.0886 177.883 86.7314 177.883 86.7314C177.883 86.7314 177.964 86.0848 178.081 85.1158C178.081 85.0922 178.081 85.0666 178.091 85.0431C178.444 82.3365 179.144 77.2557 179.488 76.5697C179.961 75.6263 178.031 73.1163 178.031 73.1163L178.909 65.6572L179.016 64.757C180.867 63.9335 182.286 61.3036 182.286 61.3036L183.375 59.403C184.559 58.6462 184.621 66.0621 184.621 66.0621L183.437 83.5728L187.36 82.4938C187.36 82.4938 195.178 112.818 194.51 115.054Z" fill="black"/>
<path d="M199.591 116.263C194.194 118.932 184.384 116.46 184.384 116.46C183.397 117.364 180.798 118.697 180.798 118.697L179.379 101.204C178.475 98.8449 178.12 86.4878 178.12 86.4878C178.12 86.4878 179.261 77.2676 179.734 76.3261C179.873 76.0509 179.805 75.6421 179.642 75.2018C178.836 73.1062 178.54 70.8507 178.777 68.6193L179.156 65.4136L179.261 64.5153C181.114 63.6898 182.533 61.06 182.533 61.06L183.519 59.3382L185.335 56.1658L186.195 54.6642L186.341 54.7959L187.456 55.8022C187.456 55.8022 187.93 56.1953 188.641 56.785C190.186 58.0822 192.856 60.3661 194.233 61.7636C195.445 62.994 195.828 67.78 195.938 71.3828C196.011 73.7552 195.968 75.6146 195.968 75.6146C194.746 77.6174 197.941 93.6973 197.941 93.6973C198.685 96.8047 199.591 116.263 199.591 116.263Z" fill="white"/>
<path opacity="0.03" d="M189.23 61.0206C189.23 61.0206 185.526 68.0434 185.957 70.7126C186.387 73.3817 187.61 76.4027 187.02 77.1084C186.817 77.3757 186.555 77.5927 186.254 77.7424C185.954 77.8921 185.622 77.9704 185.286 77.9712C184.694 78.0105 183.115 79.1092 183.115 79.2272C183.115 79.3451 181.656 79.3451 180.352 79.8954C179.048 80.4458 177.121 80.7583 177.121 80.7583C177.121 80.7583 173.372 80.6404 173.023 80.9942C172.673 81.348 172.314 83.4648 173.062 85.1532C173.81 86.8416 174.641 88.1015 175.268 88.3314C175.896 88.5614 179.878 87.2327 183.109 86.9182C186.339 86.6037 189.846 84.0545 189.846 84.0545C189.846 84.0545 193.708 82.6786 194.385 80.3652C195.062 78.0518 193.558 65.3369 193.558 65.3369C193.558 65.3369 192.422 59.4109 189.23 61.0206Z" fill="black"/>
<path opacity="0.03" d="M188.757 60.431C188.757 60.431 185.053 67.4557 185.487 70.1229C185.921 72.7901 187.141 75.8131 186.548 76.5206C186.346 76.7883 186.085 77.0055 185.784 77.1553C185.483 77.305 185.152 77.3831 184.816 77.3835C184.224 77.4228 182.645 78.5215 182.645 78.6395C182.645 78.7574 181.187 78.7574 179.882 79.3058C178.578 79.8542 176.652 80.1686 176.652 80.1686C176.652 80.1686 172.902 80.0507 172.555 80.4045C172.207 80.7583 171.844 82.8771 172.594 84.5635C173.344 86.2499 174.173 87.5118 174.801 87.7418C175.428 87.9717 179.411 86.643 182.641 86.3305C185.872 86.018 189.378 83.4648 189.378 83.4648C189.378 83.4648 193.238 82.0889 193.907 79.7775C194.576 77.4661 193.081 64.7472 193.081 64.7472C193.081 64.7472 191.948 58.8232 188.757 60.431Z" fill="black"/>
<path d="M189.114 60.6668C189.114 60.6668 185.41 67.6916 185.844 70.3588C186.278 73.026 187.498 76.0489 186.908 76.7545C186.706 77.0228 186.444 77.2406 186.143 77.3907C185.842 77.5408 185.51 77.6191 185.173 77.6194C184.581 77.6587 183.002 78.7574 183.002 78.8734C183.002 78.9893 181.546 78.9913 180.24 79.5416C178.933 80.092 177.009 80.4045 177.009 80.4045C177.009 80.4045 173.26 80.2866 172.91 80.6404C172.561 80.9941 172.202 83.113 172.95 84.7994C173.698 86.4858 174.529 87.7476 175.156 87.9776C175.784 88.2076 179.766 86.8789 182.997 86.5644C186.227 86.2499 189.734 83.7006 189.734 83.7006C189.734 83.7006 193.596 82.3248 194.273 80.0114C194.95 77.698 193.456 64.9831 193.456 64.9831C193.456 64.9831 192.303 59.0669 189.114 60.6668Z" fill="white"/>
<path opacity="0.1" d="M189.033 79.5082C189.033 79.5082 186.073 78.9185 187.103 79.9013C188.133 80.8841 188.127 81.7449 189.388 81.7056C190.649 81.6663 189.033 79.5082 189.033 79.5082Z" fill="black"/>
<path opacity="0.1" d="M194.036 100.653C194.036 100.653 192.698 101.555 195.257 103.635C197.817 105.714 194.036 100.653 194.036 100.653Z" fill="black"/>
<path opacity="0.1" d="M191.482 108.069C191.482 108.187 191.009 112.393 192.781 113.445C194.553 114.496 191.482 108.069 191.482 108.069Z" fill="black"/>
<path d="M163.345 75.1034C161.916 75.1525 158.83 75.5869 160.43 78.5607C161.845 81.1926 164.223 79.4334 165.561 78.0988C165.235 76.8546 164.441 75.7824 163.345 75.1034Z" fill="#FFB0B1"/>
<path d="M165.579 78.0759L165.638 78.0144L165.579 78.0759Z" fill="#FFB0B1"/>
<path opacity="0.1" d="M188.64 56.9047C187.125 57.9366 185.854 58.8074 185.605 58.9882C184.926 59.4894 183.632 62.4318 182.797 63.9334C182.132 65.1422 179.971 65.4528 179.156 65.5294L179.261 64.6312C181.114 63.8057 182.533 61.1758 182.533 61.1758L186.195 54.78L187.456 55.922C187.456 55.922 187.93 56.3151 188.64 56.9047Z" fill="black"/>
<path d="M188.64 56.7868C187.125 57.8187 185.854 58.6894 185.605 58.8722C184.926 59.3715 183.632 62.3138 182.797 63.8155C182.132 65.0243 179.971 65.3348 179.156 65.4115L179.261 64.5132C181.114 63.6877 182.533 61.0579 182.533 61.0579L186.195 54.6621L187.456 55.8001C187.456 55.8001 187.93 56.1893 188.64 56.7868Z" fill="#DCE7FF"/>
<path d="M185.724 51.7789C185.724 52.9588 185.365 54.111 184.693 55.0829C183.9 56.232 182.719 57.0598 181.366 57.4161C180.012 57.7724 178.575 57.6336 177.315 57.0249C176.056 56.4161 175.057 55.3778 174.5 54.0983C173.943 52.8188 173.865 51.3829 174.28 50.0511C174.696 48.7193 175.576 47.5798 176.763 46.8395C177.95 46.0992 179.363 45.807 180.748 46.0161C182.132 46.2251 183.395 46.9214 184.308 47.9788C185.221 49.0361 185.723 50.3844 185.724 51.7789Z" fill="#FFB0B1"/>
<path opacity="0.1" d="M195.938 71.3846C195.137 70.8936 194.484 70.1953 194.049 69.3641C193.72 68.7155 193.501 67.9666 192.938 67.5067C192.431 67.0939 191.754 66.9937 191.123 66.8089C189.047 66.1977 187.306 64.3108 187.241 62.1566C187.21 61.1424 187.527 60.1301 187.383 59.1258C187.301 58.5573 187.074 58.0193 186.724 57.5632C186.55 57.345 186.359 57.1406 186.154 56.9519C185.877 56.6925 185.587 56.4409 185.335 56.1657C185.176 55.9953 185.037 55.8074 184.92 55.6055C184.827 55.4404 184.75 55.2658 184.693 55.0847C184.299 53.8818 184.658 52.4548 184.224 51.2382L184.2 51.1713C184.036 50.7389 183.703 50.3065 183.239 50.2731C182.775 50.2397 182.379 50.623 181.937 50.794C181.011 51.1517 180.012 50.5424 179.241 49.9213C178.469 49.3002 177.599 48.5906 176.618 48.7282C175.969 48.8206 175.456 49.2609 174.858 49.4889C174.723 49.5409 174.583 49.581 174.441 49.6088C174.947 48.3518 175.877 47.3097 177.071 46.6613C178.265 46.0129 179.648 45.7989 180.983 46.0559C182.318 46.3129 183.521 47.0249 184.386 48.0696C185.251 49.1143 185.724 50.4264 185.724 51.7806C185.724 52.1896 185.681 52.5974 185.595 52.9973C185.605 53.0248 185.615 53.0504 185.627 53.0779C185.856 53.6675 186.114 54.2729 186.341 54.7957L187.456 55.8021C187.456 55.8021 187.93 56.1952 188.64 56.7848C190.185 58.0821 192.856 60.366 194.233 61.7635C195.445 62.9978 195.824 67.7819 195.938 71.3846Z" fill="black"/>
<path d="M174.789 45.898C175.071 45.3261 175.211 44.6853 175.548 44.1428C176.044 43.3566 176.908 42.8534 177.796 42.5488C180.115 41.7528 185.015 40.597 186.479 42.5488C186.767 42.9419 187.006 43.3782 187.405 43.6495C187.709 43.8559 188.076 43.9443 188.409 44.0996C189.343 44.5359 189.939 45.4872 190.256 46.4582C190.574 47.4292 190.669 48.4709 190.902 49.4713C191.2 50.7548 191.723 51.9715 192.244 53.1802C192.857 54.6072 193.509 56.0872 194.693 57.0955C196.309 58.4714 196.666 60.4192 198.166 61.9287C199.942 63.7213 199.885 66.6794 198.969 69.0282C198.849 69.3368 198.713 69.6591 198.76 69.9873C198.807 70.3156 199.052 70.6143 199.283 70.8757L200.254 71.9666C197.957 72.5189 195.358 71.3239 194.288 69.2267C193.959 68.5781 193.74 67.8312 193.175 67.3693C192.67 66.9565 191.991 66.8582 191.362 66.6735C189.286 66.0602 187.545 64.1714 187.48 62.0172C187.448 61.005 187.766 59.9927 187.622 58.9903C187.542 58.418 187.314 57.8763 186.961 57.4179C186.418 56.7123 185.599 56.2386 185.157 55.4524C184.409 54.1375 184.978 52.4294 184.439 51.0182C184.273 50.5858 183.941 50.1534 183.478 50.1199C183.014 50.0865 182.617 50.4698 182.173 50.6408C181.25 50.9985 180.251 50.3912 179.48 49.7681C178.708 49.1451 177.838 48.4375 176.855 48.577C176.206 48.6674 175.695 49.1077 175.097 49.3377C174.654 49.5067 173.759 49.658 173.372 49.2866C172.555 48.5377 174.447 46.5978 174.789 45.898Z" fill="#591D4B"/>
<path opacity="0.1" d="M194.837 68.5781C194.505 67.9294 194.288 67.1825 193.724 66.7226C193.219 66.3099 192.54 66.2096 191.908 66.0248C189.834 65.4136 188.094 63.5247 188.027 61.3705C187.995 60.3583 188.313 59.3441 188.171 58.3417C188.088 57.7731 187.86 57.2351 187.51 56.7791C186.965 56.0735 186.146 55.5998 185.706 54.8136C184.958 53.5006 185.526 51.7926 184.986 50.3794C184.822 49.9489 184.488 49.5165 184.026 49.4811C183.565 49.4458 183.164 49.833 182.722 50.004C181.798 50.3617 180.798 49.7524 180.028 49.1313C179.259 48.5102 178.384 47.8006 177.404 47.9382C176.754 48.0306 176.241 48.4709 175.645 48.6989C175.203 48.8679 174.305 49.0212 173.918 48.6497C173.105 47.8635 174.998 45.9275 175.337 45.2317C175.62 44.6578 175.76 44.019 176.099 43.4765C176.117 43.447 176.137 43.4175 176.156 43.3881C175.902 43.5976 175.683 43.8456 175.507 44.1232C175.17 44.6656 175.03 45.3025 174.747 45.8784C174.406 46.5742 172.513 48.5161 173.328 49.2964C173.723 49.6698 174.611 49.5165 175.053 49.3475C175.645 49.1175 176.162 48.6772 176.812 48.5868C177.798 48.4473 178.667 49.1568 179.436 49.7779C180.206 50.399 181.212 51.0083 182.132 50.6506C182.574 50.4796 182.961 50.0944 183.434 50.1298C183.908 50.1651 184.224 50.5956 184.395 51.028C184.934 52.4392 184.366 54.1473 185.114 55.4622C185.556 56.2346 186.375 56.7182 186.917 57.4277C187.271 57.8861 187.498 58.4279 187.579 59.0001C187.723 60.0025 187.405 61.0148 187.437 62.027C187.502 64.1891 189.242 66.0701 191.318 66.6833C191.944 66.8681 192.627 66.9663 193.132 67.3791C193.698 67.841 193.921 68.5879 194.245 69.2365C195.314 71.3337 197.913 72.5287 200.211 71.9764L199.753 71.4615C197.762 71.4909 195.747 70.3627 194.837 68.5781Z" fill="black"/>
<path opacity="0.1" d="M181.232 59.6074C180.974 60.0005 180.234 62.0132 179.616 63.7704C179.038 63.5463 178.513 62.1174 178.513 62.1174L181.595 57.75C181.911 58.1824 181.704 58.8998 181.232 59.6074Z" fill="black"/>
<path d="M181.35 59.4894C181.092 59.8825 180.352 61.8951 179.734 63.6523C179.156 63.4302 178.631 61.9993 178.631 61.9993L181.714 57.6339C182.029 58.0644 181.822 58.7837 181.35 59.4894Z" fill="#DCE7FF"/>
<path d="M163.428 79.5691L161.719 74.2013C161.699 74.1384 161.691 74.0722 161.697 74.0065C161.702 73.9407 161.721 73.8767 161.751 73.818C161.781 73.7594 161.823 73.7074 161.874 73.6649C161.925 73.6223 161.983 73.5902 162.046 73.5703C162.174 73.5308 162.311 73.5429 162.43 73.604C162.548 73.6651 162.637 73.7703 162.678 73.8966L164.387 79.2585L164.217 80.3809L163.428 79.5691Z" fill="#BE8B87"/>
<path opacity="0.1" d="M161.881 73.7296C162.008 73.6895 162.146 73.7013 162.265 73.7624C162.384 73.8236 162.473 73.9291 162.514 74.0559L164.223 79.4178L164.095 80.2591L164.219 80.3888L164.389 79.2665L162.67 73.9046C162.629 73.7782 162.54 73.6731 162.422 73.6119C162.304 73.5508 162.166 73.5387 162.039 73.5783C161.932 73.6129 161.839 73.682 161.776 73.7748C161.81 73.7569 161.845 73.7418 161.881 73.7296Z" fill="white"/>
<path d="M163.428 79.5693L164.387 79.2666L164.247 80.1865L164.217 80.3889L163.937 80.098L163.428 79.5693Z" fill="#EFC8C4"/>
<path d="M163.937 80.0979C163.954 80.0769 163.975 80.0595 163.998 80.0468C164.012 80.0381 164.028 80.0334 164.045 80.0334C164.061 80.0334 164.077 80.0381 164.091 80.0468C164.104 80.063 164.116 80.0808 164.125 80.0999C164.138 80.1216 164.155 80.1401 164.176 80.154C164.198 80.168 164.222 80.177 164.247 80.1805L164.217 80.377L163.937 80.0979Z" fill="#727A9C"/>
<path d="M161.709 76.1079C161.709 76.1079 165.137 76.0883 164.33 77.5408C163.523 78.9933 162.262 79.1682 162.262 79.1682L161.709 76.1079Z" fill="#FFB0B1"/>
<path d="M140.39 10.9216H140.242C134.353 10.9216 129.145 14.0252 126.15 18.6048C123.154 14.0252 117.946 10.9216 112.057 10.9216H111.909C107.49 10.9636 103.266 12.7409 100.155 15.8674C97.0438 18.9939 95.2973 23.2169 95.2949 27.6186C95.2949 33.0847 97.6986 40.8406 102.385 47.2226C111.315 59.3833 126.15 70.0226 126.15 70.0226C126.15 70.0226 140.984 59.3852 149.912 47.2226C154.601 40.8406 157.002 33.0847 157.002 27.6186C157 23.2172 155.254 18.9945 152.143 15.8681C149.033 12.7417 144.809 10.9641 140.39 10.9216ZM138.272 48.1582C137.602 48.1557 136.948 47.9512 136.396 47.5717C135.844 47.1922 135.42 46.6553 135.18 46.0315H131.659C131.428 46.0301 131.202 45.9566 131.014 45.8213C130.826 45.686 130.686 45.4956 130.612 45.2768L129.53 42.0317L126.108 53.9408C126.042 54.17 125.902 54.3716 125.711 54.5151C125.519 54.6586 125.286 54.7364 125.046 54.7368H124.977C124.727 54.7248 124.489 54.6276 124.302 54.4616C124.116 54.2957 123.992 54.0709 123.951 53.8248L120.425 32.6995L117.847 45.2001C117.788 45.4376 117.651 45.6485 117.458 45.7992C117.264 45.9499 117.025 46.0317 116.78 46.0315H111.82C111.672 46.0378 111.523 46.0141 111.384 45.9617C111.245 45.9094 111.118 45.8295 111.01 45.727C110.903 45.6244 110.818 45.5013 110.759 45.365C110.701 45.2287 110.671 45.082 110.671 44.9338C110.671 44.7856 110.701 44.639 110.759 44.5026C110.818 44.3663 110.903 44.2432 111.01 44.1406C111.118 44.0381 111.245 43.9582 111.384 43.9059C111.523 43.8536 111.672 43.8298 111.82 43.8361H115.911L119.562 27.029C119.622 26.7805 119.767 26.5605 119.972 26.4065C120.177 26.2525 120.429 26.1742 120.685 26.1849C120.941 26.1955 121.186 26.2946 121.377 26.465C121.568 26.6355 121.694 26.8668 121.733 27.1194L125.335 48.6693L128.401 38.0142C128.465 37.7898 128.6 37.592 128.786 37.4503C128.972 37.3086 129.199 37.2306 129.433 37.228H129.455C129.687 37.2281 129.913 37.3011 130.101 37.4366C130.289 37.5722 130.429 37.7633 130.501 37.9828L132.457 43.842H135.137C135.327 43.2654 135.674 42.7525 136.139 42.3598C136.603 41.9672 137.168 41.71 137.77 41.6168C138.372 41.5236 138.989 41.5979 139.551 41.8315C140.114 42.0651 140.601 42.449 140.958 42.9407C141.315 43.4324 141.529 44.0129 141.576 44.6181C141.623 45.2233 141.501 45.8296 141.224 46.3702C140.947 46.9108 140.525 47.3646 140.005 47.6815C139.485 47.9984 138.888 48.1661 138.278 48.1661L138.272 48.1582Z" fill="#1D957F"/>
</g>
<defs>
<linearGradient id="paint0_linear" x1="71.4121" y1="153.116" x2="71.4121" y2="32.1707" gradientUnits="userSpaceOnUse">
<stop stop-color="#808080" stop-opacity="0.25"/>
<stop offset="0.54" stop-color="#808080" stop-opacity="0.12"/>
<stop offset="1" stop-color="#808080" stop-opacity="0.1"/>
</linearGradient>
<linearGradient id="paint1_linear" x1="44051.3" y1="91256" x2="44051.3" y2="29173.5" gradientUnits="userSpaceOnUse">
<stop stop-color="#808080" stop-opacity="0.25"/>
<stop offset="0.54" stop-color="#808080" stop-opacity="0.12"/>
<stop offset="1" stop-color="#808080" stop-opacity="0.1"/>
</linearGradient>
</defs>
</svg>
