<svg width="105" height="18" viewBox="0 0 105 18" fill="none" xmlns="http://www.w3.org/2000/svg">
<path d="M0.812051 13.9996C0.692051 13.9996 0.584051 13.9576 0.488051 13.8736C0.404051 13.7776 0.362051 13.6696 0.362051 13.5496V1.84963C0.362051 1.71763 0.404051 1.60963 0.488051 1.52563C0.584051 1.44163 0.692051 1.39963 0.812051 1.39963H3.18805C3.32005 1.39963 3.42805 1.44163 3.51205 1.52563C3.59605 1.60963 3.63805 1.71763 3.63805 1.84963V11.2816H9.09205C9.22405 11.2816 9.33205 11.3296 9.41605 11.4256C9.50005 11.5096 9.54205 11.6176 9.54205 11.7496V13.5496C9.54205 13.6696 9.50005 13.7776 9.41605 13.8736C9.33205 13.9576 9.22405 13.9996 9.09205 13.9996H0.812051ZM15.2444 14.1796C13.7564 14.1796 12.6104 13.8256 11.8064 13.1176C11.0024 12.4096 10.5644 11.4136 10.4924 10.1296C10.4804 9.97363 10.4744 9.70363 10.4744 9.31963C10.4744 8.93563 10.4804 8.66563 10.4924 8.50963C10.5644 7.23763 11.0144 6.24763 11.8424 5.53963C12.6704 4.81963 13.8044 4.45963 15.2444 4.45963C16.6964 4.45963 17.8364 4.81963 18.6644 5.53963C19.4924 6.24763 19.9424 7.23763 20.0144 8.50963C20.0264 8.66563 20.0324 8.93563 20.0324 9.31963C20.0324 9.70363 20.0264 9.97363 20.0144 10.1296C19.9424 11.4136 19.5044 12.4096 18.7004 13.1176C17.8964 13.8256 16.7444 14.1796 15.2444 14.1796ZM15.2444 11.9836C15.7724 11.9836 16.1624 11.8276 16.4144 11.5156C16.6664 11.1916 16.8104 10.6996 16.8464 10.0396C16.8584 9.91963 16.8644 9.67963 16.8644 9.31963C16.8644 8.95963 16.8584 8.71963 16.8464 8.59963C16.8104 7.95163 16.6604 7.46563 16.3964 7.14163C16.1444 6.81763 15.7604 6.65563 15.2444 6.65563C14.2484 6.65563 13.7204 7.30363 13.6604 8.59963L13.6424 9.31963L13.6604 10.0396C13.6844 10.6996 13.8224 11.1916 14.0744 11.5156C14.3384 11.8276 14.7284 11.9836 15.2444 11.9836ZM26.4103 17.9596C25.2703 17.9596 24.3463 17.7736 23.6383 17.4016C22.9303 17.0296 22.4203 16.6036 22.1083 16.1236C21.8083 15.6436 21.6583 15.2416 21.6583 14.9176C21.6583 14.8096 21.7063 14.7136 21.8023 14.6296C21.8983 14.5456 22.0063 14.5036 22.1263 14.5036H24.4123C24.5323 14.5036 24.6223 14.5276 24.6823 14.5756C24.7543 14.6356 24.8203 14.7316 24.8803 14.8636C25.0003 15.1396 25.1623 15.3556 25.3663 15.5116C25.5703 15.6796 25.8883 15.7636 26.3203 15.7636C26.8723 15.7636 27.2803 15.6256 27.5443 15.3496C27.8083 15.0856 27.9403 14.6356 27.9403 13.9996V12.7936C27.3283 13.4656 26.4523 13.8016 25.3123 13.8016C24.1003 13.8016 23.1703 13.4476 22.5223 12.7396C21.8863 12.0196 21.5383 10.9816 21.4783 9.62563L21.4603 9.13963C21.4603 7.68763 21.7843 6.54763 22.4323 5.71963C23.0803 4.87963 24.0403 4.45963 25.3123 4.45963C25.9243 4.45963 26.4643 4.57963 26.9323 4.81963C27.4003 5.04763 27.7963 5.35963 28.1203 5.75563V5.08963C28.1203 4.95763 28.1623 4.84963 28.2463 4.76563C28.3423 4.68163 28.4503 4.63963 28.5703 4.63963H30.6403C30.7723 4.63963 30.8803 4.68763 30.9643 4.78363C31.0603 4.86763 31.1083 4.96963 31.1083 5.08963V13.7476C31.1083 15.1156 30.7003 16.1596 29.8843 16.8796C29.0683 17.5996 27.9103 17.9596 26.4103 17.9596ZM26.2843 11.4616C26.8243 11.4616 27.2263 11.2996 27.4903 10.9756C27.7543 10.6396 27.9043 10.2196 27.9403 9.71563C27.9523 9.63163 27.9583 9.44563 27.9583 9.15763C27.9583 8.88163 27.9523 8.70163 27.9403 8.61763C27.9163 8.11363 27.7663 7.69963 27.4903 7.37563C27.2263 7.03963 26.8243 6.87163 26.2843 6.87163C25.7203 6.87163 25.3123 7.03963 25.0603 7.37563C24.8083 7.71163 24.6703 8.17363 24.6463 8.76163L24.6283 9.15763C24.6283 9.86563 24.7483 10.4296 24.9883 10.8496C25.2283 11.2576 25.6603 11.4616 26.2843 11.4616ZM37.6565 14.1796C36.1685 14.1796 35.0225 13.8256 34.2185 13.1176C33.4145 12.4096 32.9765 11.4136 32.9045 10.1296C32.8925 9.97363 32.8865 9.70363 32.8865 9.31963C32.8865 8.93563 32.8925 8.66563 32.9045 8.50963C32.9765 7.23763 33.4265 6.24763 34.2545 5.53963C35.0825 4.81963 36.2165 4.45963 37.6565 4.45963C39.1085 4.45963 40.2485 4.81963 41.0765 5.53963C41.9045 6.24763 42.3545 7.23763 42.4265 8.50963C42.4385 8.66563 42.4445 8.93563 42.4445 9.31963C42.4445 9.70363 42.4385 9.97363 42.4265 10.1296C42.3545 11.4136 41.9165 12.4096 41.1125 13.1176C40.3085 13.8256 39.1565 14.1796 37.6565 14.1796ZM37.6565 11.9836C38.1845 11.9836 38.5745 11.8276 38.8265 11.5156C39.0785 11.1916 39.2225 10.6996 39.2585 10.0396C39.2705 9.91963 39.2765 9.67963 39.2765 9.31963C39.2765 8.95963 39.2705 8.71963 39.2585 8.59963C39.2225 7.95163 39.0725 7.46563 38.8085 7.14163C38.5565 6.81763 38.1725 6.65563 37.6565 6.65563C36.6605 6.65563 36.1325 7.30363 36.0725 8.59963L36.0545 9.31963L36.0725 10.0396C36.0965 10.6996 36.2345 11.1916 36.4865 11.5156C36.7505 11.8276 37.1405 11.9836 37.6565 11.9836ZM48.7124 13.9996C48.5924 13.9996 48.4844 13.9576 48.3884 13.8736C48.3044 13.7776 48.2624 13.6696 48.2624 13.5496V1.84963C48.2624 1.71763 48.3044 1.60963 48.3884 1.52563C48.4844 1.44163 48.5924 1.39963 48.7124 1.39963H50.6564C50.9444 1.39963 51.1544 1.53163 51.2864 1.79563L54.4544 7.46563L57.6224 1.79563C57.7544 1.53163 57.9644 1.39963 58.2524 1.39963H60.1784C60.3104 1.39963 60.4184 1.44163 60.5024 1.52563C60.5984 1.60963 60.6464 1.71763 60.6464 1.84963V13.5496C60.6464 13.6816 60.5984 13.7896 60.5024 13.8736C60.4184 13.9576 60.3104 13.9996 60.1784 13.9996H58.0364C57.9044 13.9996 57.7904 13.9576 57.6944 13.8736C57.6104 13.7896 57.5684 13.6816 57.5684 13.5496V6.79963L55.5524 10.5616C55.3964 10.8376 55.1864 10.9756 54.9224 10.9756H53.9864C53.8304 10.9756 53.7044 10.9396 53.6084 10.8676C53.5124 10.7956 53.4284 10.6936 53.3564 10.5616L51.3224 6.79963V13.5496C51.3224 13.6696 51.2804 13.7776 51.1964 13.8736C51.1124 13.9576 51.0044 13.9996 50.8724 13.9996H48.7124ZM67.3987 14.1796C65.9107 14.1796 64.7647 13.8256 63.9607 13.1176C63.1567 12.4096 62.7187 11.4136 62.6467 10.1296C62.6347 9.97363 62.6287 9.70363 62.6287 9.31963C62.6287 8.93563 62.6347 8.66563 62.6467 8.50963C62.7187 7.23763 63.1687 6.24763 63.9967 5.53963C64.8247 4.81963 65.9587 4.45963 67.3987 4.45963C68.8507 4.45963 69.9907 4.81963 70.8187 5.53963C71.6467 6.24763 72.0967 7.23763 72.1687 8.50963C72.1807 8.66563 72.1867 8.93563 72.1867 9.31963C72.1867 9.70363 72.1807 9.97363 72.1687 10.1296C72.0967 11.4136 71.6587 12.4096 70.8547 13.1176C70.0507 13.8256 68.8987 14.1796 67.3987 14.1796ZM67.3987 11.9836C67.9267 11.9836 68.3167 11.8276 68.5687 11.5156C68.8207 11.1916 68.9647 10.6996 69.0007 10.0396C69.0127 9.91963 69.0187 9.67963 69.0187 9.31963C69.0187 8.95963 69.0127 8.71963 69.0007 8.59963C68.9647 7.95163 68.8147 7.46563 68.5507 7.14163C68.2987 6.81763 67.9147 6.65563 67.3987 6.65563C66.4027 6.65563 65.8747 7.30363 65.8147 8.59963L65.7967 9.31963L65.8147 10.0396C65.8387 10.6996 65.9767 11.1916 66.2287 11.5156C66.4927 11.8276 66.8827 11.9836 67.3987 11.9836ZM79.6986 14.1796C78.4986 14.1796 77.5686 13.7776 76.9086 12.9736V13.5496C76.9086 13.6696 76.8666 13.7776 76.7826 13.8736C76.6986 13.9576 76.5906 13.9996 76.4586 13.9996H74.4246C74.3046 13.9996 74.1966 13.9576 74.1006 13.8736C74.0166 13.7776 73.9746 13.6696 73.9746 13.5496V1.66963C73.9746 1.53763 74.0166 1.42963 74.1006 1.34563C74.1966 1.26163 74.3046 1.21963 74.4246 1.21963H76.6206C76.7526 1.21963 76.8606 1.26163 76.9446 1.34563C77.0286 1.42963 77.0706 1.53763 77.0706 1.66963V5.52163C77.7426 4.81363 78.6186 4.45963 79.6986 4.45963C80.8626 4.45963 81.7806 4.83763 82.4526 5.59363C83.1246 6.34963 83.4846 7.37563 83.5326 8.67163C83.5446 8.82763 83.5506 9.04363 83.5506 9.31963C83.5506 9.58363 83.5446 9.79363 83.5326 9.94963C83.4726 11.2936 83.1126 12.3376 82.4526 13.0816C81.7926 13.8136 80.8746 14.1796 79.6986 14.1796ZM78.7266 11.7676C79.2906 11.7676 79.6926 11.5996 79.9326 11.2636C80.1846 10.9276 80.3286 10.4656 80.3646 9.87763C80.3886 9.63763 80.4006 9.45163 80.4006 9.31963C80.4006 9.18763 80.3886 9.00163 80.3646 8.76163C80.3286 8.17363 80.1846 7.71163 79.9326 7.37563C79.6926 7.03963 79.2906 6.87163 78.7266 6.87163C78.1986 6.87163 77.7966 7.03363 77.5206 7.35763C77.2446 7.68163 77.0946 8.08963 77.0706 8.58163L77.0526 9.24763L77.0706 9.93163C77.1066 10.4716 77.2506 10.9156 77.5026 11.2636C77.7666 11.5996 78.1746 11.7676 78.7266 11.7676ZM85.7621 3.28963C85.6301 3.28963 85.5221 3.24763 85.4381 3.16363C85.3541 3.07963 85.3121 2.97163 85.3121 2.83963V1.21963C85.3121 1.08763 85.3541 0.979633 85.4381 0.895633C85.5221 0.811633 85.6301 0.769634 85.7621 0.769634H87.9221C88.0541 0.769634 88.1621 0.811633 88.2461 0.895633C88.3301 0.979633 88.3721 1.08763 88.3721 1.21963V2.83963C88.3721 2.97163 88.3301 3.07963 88.2461 3.16363C88.1621 3.24763 88.0541 3.28963 87.9221 3.28963H85.7621ZM85.7801 13.9996C85.6481 13.9996 85.5401 13.9576 85.4561 13.8736C85.3721 13.7896 85.3301 13.6816 85.3301 13.5496V5.08963C85.3301 4.95763 85.3721 4.84963 85.4561 4.76563C85.5401 4.68163 85.6481 4.63963 85.7801 4.63963H87.9041C88.0361 4.63963 88.1441 4.68163 88.2281 4.76563C88.3121 4.84963 88.3541 4.95763 88.3541 5.08963V13.5496C88.3541 13.6696 88.3121 13.7776 88.2281 13.8736C88.1441 13.9576 88.0361 13.9996 87.9041 13.9996H85.7801ZM90.9305 13.9996C90.8105 13.9996 90.7025 13.9576 90.6065 13.8736C90.5225 13.7776 90.4805 13.6696 90.4805 13.5496V1.66963C90.4805 1.53763 90.5225 1.42963 90.6065 1.34563C90.7025 1.26163 90.8105 1.21963 90.9305 1.21963H93.0545C93.1865 1.21963 93.2945 1.26163 93.3785 1.34563C93.4625 1.42963 93.5045 1.53763 93.5045 1.66963V13.5496C93.5045 13.6816 93.4625 13.7896 93.3785 13.8736C93.2945 13.9576 93.1865 13.9996 93.0545 13.9996H90.9305ZM99.9508 14.1796C98.5108 14.1796 97.3768 13.7896 96.5488 13.0096C95.7208 12.2296 95.2888 11.0956 95.2528 9.60763V8.97763C95.3008 7.56163 95.7388 6.45763 96.5668 5.66563C97.4068 4.86163 98.5288 4.45963 99.9328 4.45963C100.953 4.45963 101.811 4.66963 102.507 5.08963C103.215 5.49763 103.743 6.06163 104.091 6.78163C104.451 7.50163 104.631 8.32963 104.631 9.26563V9.69763C104.631 9.81763 104.589 9.92563 104.505 10.0216C104.421 10.1056 104.313 10.1476 104.181 10.1476H98.4208V10.2736C98.4448 10.8376 98.5828 11.2936 98.8348 11.6416C99.0868 11.9896 99.4528 12.1636 99.9328 12.1636C100.233 12.1636 100.479 12.1036 100.671 11.9836C100.863 11.8516 101.037 11.6956 101.193 11.5156C101.301 11.3836 101.385 11.3056 101.445 11.2816C101.517 11.2456 101.625 11.2276 101.769 11.2276H104.001C104.109 11.2276 104.199 11.2636 104.271 11.3356C104.355 11.3956 104.397 11.4796 104.397 11.5876C104.397 11.8996 104.217 12.2596 103.857 12.6676C103.509 13.0756 102.999 13.4296 102.327 13.7296C101.655 14.0296 100.863 14.1796 99.9508 14.1796ZM101.463 8.36563V8.32963C101.463 7.74163 101.325 7.27963 101.049 6.94363C100.785 6.59563 100.413 6.42163 99.9328 6.42163C99.4648 6.42163 99.0928 6.59563 98.8168 6.94363C98.5528 7.27963 98.4208 7.74163 98.4208 8.32963V8.36563H101.463Z" fill="black"/>
</svg>
